<svg width="60" height="60" viewBox="0 0 60 60" fill="none" xmlns="http://www.w3.org/2000/svg">
<circle cx="30" cy="30" r="30" fill="#E94F40" fill-opacity="0.1"/>
<circle cx="30" cy="30" r="29.5" stroke="#E94F40" stroke-opacity="0.2"/>
<path d="M29.6671 43.684C27.6031 43.684 25.8271 43.276 24.3391 42.46C22.8751 41.644 21.7471 40.564 20.9551 39.22C20.1871 37.852 19.8031 36.364 19.8031 34.756H24.7351C24.7351 36.124 25.1911 37.24 26.1031 38.104C27.0151 38.968 28.2151 39.4 29.7031 39.4C31.2391 39.4 32.4511 38.932 33.3391 37.996C34.2271 37.06 34.6711 35.872 34.6711 34.432C34.6711 33.04 34.2271 31.864 33.3391 30.904C32.4751 29.92 31.2751 29.428 29.7391 29.428C28.8751 29.428 28.0591 29.596 27.2911 29.932C26.5231 30.268 25.9231 30.712 25.4911 31.264H20.7751L22.1071 16.72H37.3351V21.076H25.9951L25.4191 27.124C26.0431 26.668 26.7631 26.308 27.5791 26.044C28.3951 25.756 29.3431 25.612 30.4231 25.612C32.3671 25.612 34.0231 26.008 35.3911 26.8C36.7591 27.592 37.8031 28.648 38.5231 29.968C39.2431 31.264 39.6031 32.68 39.6031 34.216V34.684C39.6031 36.244 39.2191 37.708 38.4511 39.076C37.6831 40.444 36.5551 41.56 35.0671 42.424C33.6031 43.264 31.8031 43.684 29.6671 43.684Z" fill="url(#paint0_linear_633_8)"/>
<path d="M24.3391 42.46L23.8522 43.3335L23.8582 43.3368L24.3391 42.46ZM20.9551 39.22L20.0831 39.7095L20.0882 39.7187L20.0935 39.7277L20.9551 39.22ZM19.8031 34.756V33.756H18.8031V34.756H19.8031ZM24.7351 34.756H25.7351V33.756H24.7351V34.756ZM26.1031 38.104L25.4153 38.83L26.1031 38.104ZM33.3391 37.996L32.6136 37.3077L33.3391 37.996ZM33.3391 30.904L32.5876 31.5638L32.5962 31.5735L32.605 31.583L33.3391 30.904ZM27.2911 29.932L26.8902 29.0158L27.2911 29.932ZM25.4911 31.264V32.264H25.9783L26.2786 31.8803L25.4911 31.264ZM20.7751 31.264L19.7792 31.1728L19.6793 32.264H20.7751V31.264ZM22.1071 16.72V15.72H21.1945L21.1112 16.6288L22.1071 16.72ZM37.3351 16.72H38.3351V15.72H37.3351V16.72ZM37.3351 21.076V22.076H38.3351V21.076H37.3351ZM25.9951 21.076V20.076H25.0858L24.9996 20.9812L25.9951 21.076ZM25.4191 27.124L24.4236 27.0292L24.2126 29.2442L26.0091 27.9314L25.4191 27.124ZM27.5791 26.044L27.8869 26.9954L27.8994 26.9914L27.9119 26.987L27.5791 26.044ZM38.5231 29.968L37.6451 30.4469L37.6489 30.4536L38.5231 29.968ZM35.0671 42.424L35.5647 43.2914L35.5692 43.2888L35.0671 42.424ZM29.6671 42.684C27.7351 42.684 26.1318 42.3026 24.8199 41.5832L23.8582 43.3368C25.5223 44.2494 27.4711 44.684 29.6671 44.684V42.684ZM24.8259 41.5865C23.5051 40.8503 22.5117 39.8919 21.8166 38.7123L20.0935 39.7277C20.9824 41.2361 22.245 42.4377 23.8522 43.3335L24.8259 41.5865ZM21.827 38.7305C21.1451 37.5158 20.8031 36.197 20.8031 34.756H18.8031C18.8031 36.531 19.229 38.1882 20.0831 39.7095L21.827 38.7305ZM19.8031 35.756H24.7351V33.756H19.8031V35.756ZM23.7351 34.756C23.7351 36.3715 24.2851 37.7592 25.4153 38.83L26.7908 37.378C26.097 36.7208 25.7351 35.8765 25.7351 34.756H23.7351ZM25.4153 38.83C26.5466 39.9017 28.0095 40.4 29.7031 40.4V38.4C28.4206 38.4 27.4835 38.0343 26.7908 37.378L25.4153 38.83ZM29.7031 40.4C31.4569 40.4 32.952 39.8569 34.0645 38.6843L32.6136 37.3077C31.9501 38.0071 31.0213 38.4 29.7031 38.4V40.4ZM34.0645 38.6843C35.1498 37.5403 35.6711 36.0958 35.6711 34.432H33.6711C33.6711 35.6482 33.3043 36.5797 32.6136 37.3077L34.0645 38.6843ZM35.6711 34.432C35.6711 32.806 35.1438 31.3824 34.0732 30.225L32.605 31.583C33.3103 32.3456 33.6711 33.274 33.6711 34.432H35.6711ZM34.0905 30.2442C33.0032 29.0059 31.508 28.428 29.7391 28.428V30.428C31.0421 30.428 31.9469 30.8341 32.5876 31.5638L34.0905 30.2442ZM29.7391 28.428C28.7414 28.428 27.7886 28.6228 26.8902 29.0158L27.6919 30.8482C28.3296 30.5692 29.0087 30.428 29.7391 30.428V28.428ZM26.8902 29.0158C26.0001 29.4053 25.2559 29.942 24.7036 30.6477L26.2786 31.8803C26.5903 31.482 27.046 31.1307 27.6919 30.8482L26.8902 29.0158ZM25.4911 30.264H20.7751V32.264H25.4911V30.264ZM21.7709 31.3552L23.1029 16.8112L21.1112 16.6288L19.7792 31.1728L21.7709 31.3552ZM22.1071 17.72H37.3351V15.72H22.1071V17.72ZM36.3351 16.72V21.076H38.3351V16.72H36.3351ZM37.3351 20.076H25.9951V22.076H37.3351V20.076ZM24.9996 20.9812L24.4236 27.0292L26.4146 27.2188L26.9906 21.1708L24.9996 20.9812ZM26.0091 27.9314C26.5384 27.5446 27.161 27.2303 27.8869 26.9954L27.2712 25.0926C26.3651 25.3857 25.5477 25.7914 24.829 26.3166L26.0091 27.9314ZM27.9119 26.987C28.5982 26.7448 29.4295 26.612 30.4231 26.612V24.612C29.2567 24.612 28.1919 24.7672 27.2462 25.101L27.9119 26.987ZM30.4231 26.612C32.2313 26.612 33.7057 26.9797 34.89 27.6654L35.8921 25.9346C34.3405 25.0363 32.5028 24.612 30.4231 24.612V26.612ZM34.89 27.6654C36.1078 28.3705 37.0176 29.2962 37.6452 30.4469L39.401 29.4891C38.5886 27.9998 37.4103 26.8135 35.8921 25.9346L34.89 27.6654ZM37.6489 30.4536C38.2833 31.5956 38.6031 32.8436 38.6031 34.216H40.6031C40.6031 32.5164 40.2028 30.9324 39.3972 29.4824L37.6489 30.4536ZM38.6031 34.216V34.684H40.6031V34.216H38.6031ZM38.6031 34.684C38.6031 36.0715 38.2636 37.3671 37.5791 38.5865L39.323 39.5655C40.1745 38.0489 40.6031 36.4165 40.6031 34.684H38.6031ZM37.5791 38.5865C36.9069 39.7837 35.9137 40.776 34.5649 41.5592L35.5692 43.2888C37.1964 42.344 38.4592 41.1043 39.323 39.5655L37.5791 38.5865ZM34.5694 41.5566C33.292 42.2895 31.674 42.684 29.6671 42.684V44.684C31.9321 44.684 33.9141 44.2385 35.5647 43.2914L34.5694 41.5566Z" fill="#E94F40"/>
<defs>
<linearGradient id="paint0_linear_633_8" x1="29.5" y1="20" x2="29.5" y2="58.5" gradientUnits="userSpaceOnUse">
<stop stop-color="#E94F40"/>
<stop offset="1" stop-color="#E94F40" stop-opacity="0"/>
</linearGradient>
</defs>
</svg>
