<svg width="60" height="60" viewBox="0 0 60 60" fill="none" xmlns="http://www.w3.org/2000/svg">
<circle cx="30" cy="30" r="30" fill="#E94F40" fill-opacity="0.1"/>
<circle cx="30" cy="30" r="29.5" stroke="#E94F40" stroke-opacity="0.2"/>
<path d="M30.1168 43.756C28.1728 43.756 26.5168 43.432 25.1488 42.784C23.8048 42.112 22.7128 41.2 21.8728 40.048C21.0328 38.896 20.4208 37.564 20.0368 36.052C19.6528 34.54 19.4608 32.92 19.4608 31.192V29.608C19.4608 25.336 20.5408 22.084 22.7008 19.852C24.8848 17.62 28.0768 16.504 32.2768 16.504C33.1888 16.504 34.0408 16.528 34.8328 16.576C35.6248 16.624 36.4168 16.696 37.2088 16.792V21.076C36.4168 21.004 35.6008 20.944 34.7608 20.896C33.9448 20.824 33.0568 20.788 32.0968 20.788C30.1528 20.788 28.6048 21.112 27.4528 21.76C26.3248 22.408 25.4968 23.356 24.9688 24.604C24.4648 25.852 24.1888 27.4 24.1408 29.248C24.8368 28.048 25.7968 27.148 27.0208 26.548C28.2688 25.948 29.6968 25.648 31.3048 25.648C33.1768 25.648 34.7728 26.02 36.0928 26.764C37.4128 27.508 38.4208 28.54 39.1168 29.86C39.8368 31.18 40.1968 32.716 40.1968 34.468C40.1968 36.292 39.7888 37.912 38.9728 39.328C38.1568 40.72 36.9928 41.812 35.4808 42.604C33.9928 43.372 32.2048 43.756 30.1168 43.756ZM30.0088 39.472C31.7128 39.472 33.0208 39.016 33.9328 38.104C34.8448 37.192 35.3008 36.004 35.3008 34.54C35.3008 33.076 34.8448 31.888 33.9328 30.976C33.0448 30.064 31.7968 29.608 30.1888 29.608C28.6288 29.608 27.3088 30.028 26.2288 30.868C25.1488 31.708 24.6088 32.932 24.6088 34.54C24.6088 35.932 25.0528 37.108 25.9408 38.068C26.8528 39.004 28.2088 39.472 30.0088 39.472Z" fill="url(#paint0_linear_633_9)"/>
<path d="M25.1488 42.784L24.7016 43.6784L24.7111 43.6832L24.7207 43.6877L25.1488 42.784ZM21.8728 40.048L21.0648 40.6372L21.8728 40.048ZM20.0368 36.052L19.0676 36.2982L20.0368 36.052ZM22.7008 19.852L21.986 19.1526L21.9822 19.1566L22.7008 19.852ZM34.8328 16.576L34.7723 17.5742L34.7723 17.5742L34.8328 16.576ZM37.2088 16.792H38.2088V15.9059L37.3291 15.7993L37.2088 16.792ZM37.2088 21.076L37.1182 22.0719L38.2088 22.171V21.076H37.2088ZM34.7608 20.896L34.6729 21.8921L34.6883 21.8935L34.7037 21.8944L34.7608 20.896ZM27.4528 21.76L26.9625 20.8884L26.9547 20.8929L27.4528 21.76ZM24.9688 24.604L24.0478 24.2144L24.0446 24.2219L24.0415 24.2295L24.9688 24.604ZM24.1408 29.248L23.1411 29.222L25.0058 29.7497L24.1408 29.248ZM27.0208 26.548L26.5875 25.6467L26.5806 25.6501L27.0208 26.548ZM36.0928 26.764L36.5838 25.8928V25.8928L36.0928 26.764ZM39.1168 29.86L38.2321 30.3265L38.2389 30.3389L39.1168 29.86ZM38.9728 39.328L39.8355 39.8337L39.8392 39.8273L38.9728 39.328ZM35.4808 42.604L35.9394 43.4926L35.9448 43.4898L35.4808 42.604ZM33.9328 30.976L33.2162 31.6737L33.2257 31.6831L33.9328 30.976ZM25.9408 38.068L25.2067 38.747L25.2155 38.7566L25.2246 38.7659L25.9408 38.068ZM30.1168 42.756C28.2802 42.756 26.7787 42.4495 25.5769 41.8803L24.7207 43.6877C26.2549 44.4145 28.0653 44.756 30.1168 44.756V42.756ZM25.596 41.8896C24.387 41.2851 23.4215 40.4747 22.6808 39.4588L21.0648 40.6372C22.004 41.9253 23.2226 42.9389 24.7016 43.6784L25.596 41.8896ZM22.6808 39.4588C21.9227 38.4192 21.3616 37.206 21.006 35.8058L19.0676 36.2982C19.48 37.922 20.1429 39.3728 21.0648 40.6372L22.6808 39.4588ZM21.006 35.8058C20.6445 34.3824 20.4608 32.8458 20.4608 31.192H18.4608C18.4608 32.9942 18.6611 34.6976 19.0676 36.2982L21.006 35.8058ZM20.4608 31.192V29.608H18.4608V31.192H20.4608ZM20.4608 29.608C20.4608 25.4965 21.4987 22.5322 23.4194 20.5474L21.9822 19.1566C19.5829 21.6358 18.4608 25.1755 18.4608 29.608H20.4608ZM23.4155 20.5514C25.3535 18.5708 28.2499 17.504 32.2768 17.504V15.504C27.9037 15.504 24.416 16.6692 21.986 19.1526L23.4155 20.5514ZM32.2768 17.504C33.1715 17.504 34.0031 17.5276 34.7723 17.5742L34.8933 15.5778C34.0784 15.5284 33.2061 15.504 32.2768 15.504V17.504ZM34.7723 17.5742C35.5442 17.6209 36.3162 17.6911 37.0885 17.7847L37.3291 15.7993C36.5173 15.7009 35.7054 15.627 34.8933 15.5778L34.7723 17.5742ZM36.2088 16.792V21.076H38.2088V16.792H36.2088ZM37.2993 20.0801C36.4956 20.007 35.6684 19.9462 34.8178 19.8976L34.7037 21.8944C35.5332 21.9418 36.338 22.001 37.1182 22.0719L37.2993 20.0801ZM34.8487 19.8999C33.999 19.8249 33.0813 19.788 32.0968 19.788V21.788C33.0323 21.788 33.8906 21.8231 34.6729 21.8921L34.8487 19.8999ZM32.0968 19.788C30.0563 19.788 28.3184 20.1257 26.9625 20.8884L27.943 22.6316C28.8912 22.0982 30.2493 21.788 32.0968 21.788V19.788ZM26.9547 20.8929C25.6291 21.6544 24.6571 22.7743 24.0478 24.2144L25.8897 24.9936C26.3365 23.9377 27.0205 23.1616 27.9509 22.6271L26.9547 20.8929ZM24.0415 24.2295C23.4795 25.6214 23.1911 27.296 23.1411 29.222L25.1404 29.274C25.1864 27.504 25.4501 26.0826 25.896 24.9785L24.0415 24.2295ZM25.0058 29.7497C25.6044 28.7177 26.418 27.9572 27.4609 27.4459L26.5806 25.6501C25.1756 26.3388 24.0692 27.3783 23.2758 28.7463L25.0058 29.7497ZM27.4541 27.4493C28.5467 26.9239 29.8227 26.648 31.3048 26.648V24.648C29.5709 24.648 27.9909 24.9721 26.5875 25.6467L27.4541 27.4493ZM31.3048 26.648C33.0448 26.648 34.4631 26.9933 35.6018 27.6352L36.5838 25.8928C35.0825 25.0467 33.3087 24.648 31.3048 24.648V26.648ZM35.6018 27.6352C36.7572 28.2864 37.6273 29.1791 38.2322 30.3264L40.0014 29.3936C39.2143 27.9009 38.0684 26.7296 36.5838 25.8928L35.6018 27.6352ZM38.2389 30.3389C38.8664 31.4894 39.1968 32.8555 39.1968 34.468H41.1968C41.1968 32.5765 40.8071 30.8706 39.9947 29.3811L38.2389 30.3389ZM39.1968 34.468C39.1968 36.1375 38.825 37.5816 38.1064 38.8287L39.8392 39.8273C40.7526 38.2424 41.1968 36.4465 41.1968 34.468H39.1968ZM38.1101 38.8223C37.3943 40.0432 36.3729 41.0078 35.0168 41.7182L35.9448 43.4898C37.6126 42.6162 38.9192 41.3967 39.8355 39.8337L38.1101 38.8223ZM35.0221 41.7154C33.7067 42.3943 32.0838 42.756 30.1168 42.756V44.756C32.3257 44.756 34.2789 44.3497 35.9394 43.4926L35.0221 41.7154ZM30.0088 40.472C31.8897 40.472 33.486 39.965 34.6399 38.8111L33.2257 37.3969C32.5556 38.067 31.5359 38.472 30.0088 38.472V40.472ZM34.6399 38.8111C35.7653 37.6857 36.3008 36.2302 36.3008 34.54H34.3008C34.3008 35.7778 33.9242 36.6983 33.2257 37.3969L34.6399 38.8111ZM36.3008 34.54C36.3008 32.8498 35.7653 31.3943 34.6399 30.2689L33.2257 31.6831C33.9242 32.3817 34.3008 33.3022 34.3008 34.54H36.3008ZM34.6493 30.2784C33.5264 29.1252 31.9915 28.608 30.1888 28.608V30.608C31.602 30.608 32.5632 31.0028 33.2163 31.6736L34.6493 30.2784ZM30.1888 28.608C28.4391 28.608 26.8946 29.0833 25.6148 30.0786L26.8427 31.6574C27.723 30.9727 28.8184 30.608 30.1888 30.608V28.608ZM25.6148 30.0786C24.247 31.1425 23.6088 32.6842 23.6088 34.54H25.6088C25.6088 33.1798 26.0506 32.2735 26.8427 31.6574L25.6148 30.0786ZM23.6088 34.54C23.6088 36.166 24.136 37.5896 25.2067 38.747L26.6749 37.389C25.9695 36.6264 25.6088 35.698 25.6088 34.54H23.6088ZM25.2246 38.7659C26.3869 39.9588 28.0434 40.472 30.0088 40.472V38.472C28.3742 38.472 27.3187 38.0492 26.657 37.3701L25.2246 38.7659Z" fill="#E94F40"/>
<defs>
<linearGradient id="paint0_linear_633_9" x1="29.5" y1="20" x2="29.5" y2="58.5" gradientUnits="userSpaceOnUse">
<stop stop-color="#E94F40"/>
<stop offset="1" stop-color="#E94F40" stop-opacity="0"/>
</linearGradient>
</defs>
</svg>
