<svg width="60" height="60" viewBox="0 0 60 60" fill="none" xmlns="http://www.w3.org/2000/svg">
<circle cx="30" cy="30" r="30" fill="#E94F40" fill-opacity="0.1"/>
<circle cx="30" cy="30" r="29.5" stroke="#E94F40" stroke-opacity="0.2"/>
<path d="M30.2484 43.684C28.2324 43.684 26.4924 43.3 25.0284 42.532C23.5884 41.764 22.4844 40.744 21.7164 39.472C20.9484 38.176 20.5644 36.736 20.5644 35.152H25.4964C25.4964 36.448 25.9164 37.48 26.7564 38.248C27.6204 39.016 28.7844 39.4 30.2484 39.4C31.7364 39.4 32.9004 39.004 33.7404 38.212C34.5804 37.396 35.0004 36.328 35.0004 35.008C35.0004 33.712 34.5804 32.656 33.7404 31.84C32.9004 31 31.7484 30.58 30.2844 30.58C29.5644 30.58 28.9284 30.688 28.3764 30.904C27.8244 31.096 27.3564 31.336 26.9724 31.624L24.6324 27.592L33.2724 21.688L32.9484 21.076H21.6444V16.72H38.8164V21.976L31.3284 26.944C33.1284 27.064 34.6644 27.484 35.9364 28.204C37.2324 28.9 38.2164 29.824 38.8884 30.976C39.5844 32.128 39.9324 33.436 39.9324 34.9V35.368C39.9324 36.88 39.5484 38.272 38.7804 39.544C38.0124 40.792 36.9084 41.8 35.4684 42.568C34.0284 43.312 32.2884 43.684 30.2484 43.684Z" fill="url(#paint0_linear_633_6)"/>
<path d="M25.0284 42.532L24.5578 43.4144L24.5639 43.4175L25.0284 42.532ZM21.7164 39.472L20.8561 39.9818L20.8604 39.9889L21.7164 39.472ZM20.5644 35.152V34.152H19.5644V35.152H20.5644ZM25.4964 35.152H26.4964V34.152H25.4964V35.152ZM26.7564 38.248L26.0816 38.9861L26.0921 38.9954L26.7564 38.248ZM33.7404 38.212L34.4264 38.9396L34.4319 38.9345L34.4372 38.9293L33.7404 38.212ZM33.7404 31.84L33.0333 32.5471L33.0384 32.5522L33.0436 32.5573L33.7404 31.84ZM28.3764 30.904L28.7049 31.8485L28.723 31.8422L28.7408 31.8352L28.3764 30.904ZM26.9724 31.624L26.1075 32.1259L26.6723 33.0991L27.5724 32.424L26.9724 31.624ZM24.6324 27.592L24.0682 26.7664L23.3012 27.2905L23.7675 28.0939L24.6324 27.592ZM33.2724 21.688L33.8366 22.5136L34.5742 22.0096L34.1562 21.2201L33.2724 21.688ZM32.9484 21.076L33.8322 20.6081L33.5505 20.076H32.9484V21.076ZM21.6444 21.076H20.6444V22.076H21.6444V21.076ZM21.6444 16.72V15.72H20.6444V16.72H21.6444ZM38.8164 16.72H39.8164V15.72H38.8164V16.72ZM38.8164 21.976L39.3693 22.8093L39.8164 22.5126V21.976H38.8164ZM31.3284 26.944L30.7756 26.1107L28.3121 27.7451L31.2619 27.9418L31.3284 26.944ZM35.9364 28.204L35.4438 29.0743L35.4535 29.0797L35.4633 29.085L35.9364 28.204ZM38.8884 30.976L38.0246 31.4799L38.0285 31.4865L38.0325 31.4931L38.8884 30.976ZM38.7804 39.544L39.6321 40.0681L39.6365 40.0609L38.7804 39.544ZM35.4684 42.568L35.9275 43.4565L35.939 43.4504L35.4684 42.568ZM30.2484 42.684C28.3592 42.684 26.7855 42.3245 25.493 41.6465L24.5639 43.4175C26.1993 44.2755 28.1057 44.684 30.2484 44.684V42.684ZM25.499 41.6496C24.202 40.9579 23.2383 40.0579 22.5725 38.9551L20.8604 39.9889C21.7306 41.4301 22.9749 42.5701 24.5578 43.4144L25.499 41.6496ZM22.5767 38.9622C21.905 37.8286 21.5644 36.5662 21.5644 35.152H19.5644C19.5644 36.9058 19.9919 38.5234 20.8561 39.9818L22.5767 38.9622ZM20.5644 36.152H25.4964V34.152H20.5644V36.152ZM24.4964 35.152C24.4964 36.6858 25.0047 38.0014 26.0817 38.986L27.4312 37.51C26.8281 36.9586 26.4964 36.2102 26.4964 35.152H24.4964ZM26.0921 38.9954C27.1839 39.966 28.6069 40.4 30.2484 40.4V38.4C28.9619 38.4 28.0569 38.066 27.4208 37.5006L26.0921 38.9954ZM30.2484 40.4C31.9151 40.4 33.3519 39.9527 34.4264 38.9396L33.0544 37.4844C32.4489 38.0553 31.5577 38.4 30.2484 38.4V40.4ZM34.4372 38.9293C35.4965 37.9003 36.0004 36.5606 36.0004 35.008H34.0004C34.0004 36.0954 33.6644 36.8917 33.0436 37.4947L34.4372 38.9293ZM36.0004 35.008C36.0004 33.4735 35.4927 32.1481 34.4372 31.1227L33.0436 32.5573C33.6681 33.1639 34.0004 33.9505 34.0004 35.008H36.0004ZM34.4475 31.1329C33.3783 30.0637 31.9482 29.58 30.2844 29.58V31.58C31.5486 31.58 32.4225 31.9363 33.0333 32.5471L34.4475 31.1329ZM30.2844 29.58C29.4657 29.58 28.7021 29.7027 28.012 29.9728L28.7408 31.8352C29.1547 31.6733 29.6631 31.58 30.2844 31.58V29.58ZM28.0479 29.9595C27.4189 30.1783 26.8546 30.4624 26.3724 30.824L27.5724 32.424C27.8582 32.2096 28.2299 32.0137 28.7049 31.8485L28.0479 29.9595ZM27.8373 31.1221L25.4973 27.09L23.7675 28.0939L26.1075 32.1259L27.8373 31.1221ZM25.1966 28.4176L33.8366 22.5136L32.7082 20.8624L24.0682 26.7664L25.1966 28.4176ZM34.1562 21.2201L33.8322 20.6081L32.0646 21.5439L32.3886 22.1559L34.1562 21.2201ZM32.9484 20.076H21.6444V22.076H32.9484V20.076ZM22.6444 21.076V16.72H20.6444V21.076H22.6444ZM21.6444 17.72H38.8164V15.72H21.6444V17.72ZM37.8164 16.72V21.976H39.8164V16.72H37.8164ZM38.2636 21.1427L30.7756 26.1107L31.8813 27.7773L39.3693 22.8093L38.2636 21.1427ZM31.2619 27.9418C32.9464 28.0541 34.3294 28.4435 35.4438 29.0743L36.429 27.3337C34.9994 26.5245 33.3104 26.0739 31.3949 25.9462L31.2619 27.9418ZM35.4633 29.085C36.6141 29.703 37.455 30.5033 38.0246 31.4799L39.7522 30.4721C38.9778 29.1447 37.8508 28.097 36.4095 27.323L35.4633 29.085ZM38.0325 31.4931C38.626 32.4755 38.9324 33.6017 38.9324 34.9H40.9324C40.9324 33.2703 40.5428 31.7805 39.7443 30.4589L38.0325 31.4931ZM38.9324 34.9V35.368H40.9324V34.9H38.9324ZM38.9324 35.368C38.9324 36.7012 38.5965 37.914 37.9244 39.0271L39.6365 40.0609C40.5004 38.63 40.9324 37.0588 40.9324 35.368H38.9324ZM37.9288 39.0199C37.264 40.1001 36.2995 40.9914 34.9978 41.6856L35.939 43.4504C37.5173 42.6086 38.7608 41.4839 39.6321 40.0681L37.9288 39.0199ZM35.0094 41.6796C33.7433 42.3337 32.1691 42.684 30.2484 42.684V44.684C32.4078 44.684 34.3136 44.2903 35.9274 43.4564L35.0094 41.6796Z" fill="#E94F40"/>
<defs>
<linearGradient id="paint0_linear_633_6" x1="30.5" y1="20" x2="30.5" y2="58.5" gradientUnits="userSpaceOnUse">
<stop stop-color="#E94F40"/>
<stop offset="1" stop-color="#E94F40" stop-opacity="0"/>
</linearGradient>
</defs>
</svg>
