<svg width="60" height="60" viewBox="0 0 60 60" fill="none" xmlns="http://www.w3.org/2000/svg">
<circle cx="30" cy="30" r="30" fill="#E94F40" fill-opacity="0.1"/>
<circle cx="30" cy="30" r="29.5" stroke="#E94F40" stroke-opacity="0.2"/>
<path d="M23.9613 43L33.7893 21.4L33.4653 20.932H24.2853V25.144H20.1453V16.72H39.2973V20.608L29.3253 43H23.9613Z" fill="url(#paint0_linear_633_10)"/>
<path d="M23.9613 43L23.0511 42.5859L22.4077 44H23.9613V43ZM33.7893 21.4L34.6996 21.8141L34.9346 21.2975L34.6115 20.8308L33.7893 21.4ZM33.4653 20.932L34.2875 20.3628L33.9893 19.932H33.4653V20.932ZM24.2853 20.932V19.932H23.2853V20.932H24.2853ZM24.2853 25.144V26.144H25.2853V25.144H24.2853ZM20.1453 25.144H19.1453V26.144H20.1453V25.144ZM20.1453 16.72V15.72H19.1453V16.72H20.1453ZM39.2973 16.72H40.2973V15.72H39.2973V16.72ZM39.2973 20.608L40.2109 21.0148L40.2973 20.8206V20.608H39.2973ZM29.3253 43V44H29.9747L30.2389 43.4068L29.3253 43ZM24.8716 43.4141L34.6996 21.8141L32.8791 20.9859L23.0511 42.5859L24.8716 43.4141ZM34.6115 20.8308L34.2875 20.3628L32.6432 21.5012L32.9672 21.9692L34.6115 20.8308ZM33.4653 19.932H24.2853V21.932H33.4653V19.932ZM23.2853 20.932V25.144H25.2853V20.932H23.2853ZM24.2853 24.144H20.1453V26.144H24.2853V24.144ZM21.1453 25.144V16.72H19.1453V25.144H21.1453ZM20.1453 17.72H39.2973V15.72H20.1453V17.72ZM38.2973 16.72V20.608H40.2973V16.72H38.2973ZM38.3838 20.2012L28.4118 42.5932L30.2389 43.4068L40.2109 21.0148L38.3838 20.2012ZM29.3253 42H23.9613V44H29.3253V42Z" fill="#E94F40"/>
<defs>
<linearGradient id="paint0_linear_633_10" x1="29.5" y1="20" x2="29.5" y2="58.5" gradientUnits="userSpaceOnUse">
<stop stop-color="#E94F40"/>
<stop offset="1" stop-color="#E94F40" stop-opacity="0"/>
</linearGradient>
</defs>
</svg>
