<svg width="60" height="60" viewBox="0 0 60 60" fill="none" xmlns="http://www.w3.org/2000/svg">
<circle cx="30" cy="30" r="30" fill="#E94F40" fill-opacity="0.1"/>
<circle cx="30" cy="30" r="29.5" stroke="#E94F40" stroke-opacity="0.2"/>
<path d="M29.5135 43V21.112H24.1495V16.72H34.5895V43H29.5135Z" fill="url(#paint0_linear_633_4)"/>
<path d="M29.5135 43H28.5135V44H29.5135V43ZM29.5135 21.112H30.5135V20.112H29.5135V21.112ZM24.1495 21.112H23.1495V22.112H24.1495V21.112ZM24.1495 16.72V15.72H23.1495V16.72H24.1495ZM34.5895 16.72H35.5895V15.72H34.5895V16.72ZM34.5895 43V44H35.5895V43H34.5895ZM30.5135 43V21.112H28.5135V43H30.5135ZM29.5135 20.112H24.1495V22.112H29.5135V20.112ZM25.1495 21.112V16.72H23.1495V21.112H25.1495ZM24.1495 17.72H34.5895V15.72H24.1495V17.72ZM33.5895 16.72V43H35.5895V16.72H33.5895ZM34.5895 42H29.5135V44H34.5895V42Z" fill="#E94F40"/>
<defs>
<linearGradient id="paint0_linear_633_4" x1="30.5" y1="20" x2="30.5" y2="58.5" gradientUnits="userSpaceOnUse">
<stop stop-color="#E94F40"/>
<stop offset="1" stop-color="#E94F40" stop-opacity="0"/>
</linearGradient>
</defs>
</svg>
