<svg width="60" height="60" viewBox="0 0 60 60" fill="none" xmlns="http://www.w3.org/2000/svg">
<circle cx="30" cy="30" r="30" fill="#E94F40" fill-opacity="0.1"/>
<circle cx="30" cy="30" r="29.5" stroke="#E94F40" stroke-opacity="0.2"/>
<path d="M21.5548 43V37.96C21.5548 36.304 21.9628 34.96 22.7788 33.928C23.5948 32.896 24.9988 31.948 26.9908 31.084L31.4548 29.104C32.5588 28.624 33.3988 28.012 33.9748 27.268C34.5748 26.524 34.8748 25.576 34.8748 24.424C34.8748 23.152 34.4908 22.144 33.7228 21.4C32.9788 20.632 31.9108 20.248 30.5188 20.248C29.1268 20.248 28.0468 20.644 27.2788 21.436C26.5348 22.204 26.1628 23.26 26.1628 24.604H21.2308C21.2308 22.996 21.5668 21.544 22.2388 20.248C22.9348 18.928 23.9668 17.884 25.3348 17.116C26.7268 16.348 28.4548 15.964 30.5188 15.964C32.5588 15.964 34.2628 16.336 35.6308 17.08C37.0228 17.824 38.0668 18.82 38.7628 20.068C39.4588 21.316 39.8068 22.684 39.8068 24.172V24.64C39.8068 26.632 39.2548 28.288 38.1508 29.608C37.0468 30.904 35.4268 32.02 33.2908 32.956L28.8268 34.936C27.9628 35.296 27.3628 35.68 27.0268 36.088C26.7148 36.496 26.5588 37.024 26.5588 37.672V38.644H39.9148V43H21.5548Z" fill="url(#paint0_linear_633_5)"/>
<path d="M21.5548 43H20.5548V44H21.5548V43ZM22.7788 33.928L23.5633 34.5482H23.5633L22.7788 33.928ZM26.9908 31.084L27.3888 32.0015L27.3963 31.9981L26.9908 31.084ZM31.4548 29.104L31.0561 28.1869L31.0494 28.1899L31.4548 29.104ZM33.9748 27.268L33.1964 26.6402L33.1902 26.648L33.1841 26.6558L33.9748 27.268ZM33.7228 21.4L33.0046 22.0958L33.0156 22.1072L33.0271 22.1182L33.7228 21.4ZM27.2788 21.436L26.5609 20.7399L26.5606 20.7402L27.2788 21.436ZM26.1628 24.604V25.604H27.1628V24.604H26.1628ZM21.2308 24.604H20.2308V25.604H21.2308V24.604ZM22.2388 20.248L21.3543 19.7816L21.3511 19.7877L22.2388 20.248ZM25.3348 17.116L24.8518 16.2404L24.8453 16.244L25.3348 17.116ZM35.6308 17.08L35.1531 17.9585L35.1595 17.9619L35.6308 17.08ZM38.7628 20.068L39.6362 19.5809V19.5809L38.7628 20.068ZM38.1508 29.608L38.9121 30.2565L38.9179 30.2496L38.1508 29.608ZM33.2908 32.956L32.8895 32.0401L32.8854 32.0419L33.2908 32.956ZM28.8268 34.936L29.2115 35.8591L29.2219 35.8547L29.2323 35.8501L28.8268 34.936ZM27.0268 36.088L26.2549 35.4523L26.2434 35.4662L26.2325 35.4805L27.0268 36.088ZM26.5588 38.644H25.5588V39.644H26.5588V38.644ZM39.9148 38.644H40.9148V37.644H39.9148V38.644ZM39.9148 43V44H40.9148V43H39.9148ZM22.5548 43V37.96H20.5548V43H22.5548ZM22.5548 37.96C22.5548 36.4697 22.9197 35.3621 23.5633 34.5482L21.9944 33.3078C21.006 34.5579 20.5548 36.1383 20.5548 37.96H22.5548ZM23.5633 34.5482C24.2309 33.7039 25.461 32.8376 27.3888 32.0014L26.5929 30.1666C24.5367 31.0584 22.9588 32.0881 21.9944 33.3078L23.5633 34.5482ZM27.3963 31.9981L31.8603 30.0181L31.0494 28.1899L26.5854 30.1699L27.3963 31.9981ZM31.8536 30.0211C33.0697 29.4923 34.0618 28.7892 34.7656 27.8802L33.1841 26.6558C32.7359 27.2348 32.048 27.7557 31.0561 28.1869L31.8536 30.0211ZM34.7533 27.8958C35.5244 26.9395 35.8748 25.7558 35.8748 24.424H33.8748C33.8748 25.3962 33.6252 26.1085 33.1964 26.6402L34.7533 27.8958ZM35.8748 24.424C35.8748 22.9366 35.4175 21.6495 34.4186 20.6818L33.0271 22.1182C33.5641 22.6385 33.8748 23.3674 33.8748 24.424H35.8748ZM34.4411 20.7042C33.4565 19.6879 32.096 19.248 30.5188 19.248V21.248C31.7257 21.248 32.5012 21.5761 33.0046 22.0958L34.4411 20.7042ZM30.5188 19.248C28.9312 19.248 27.5637 19.7057 26.5609 20.7399L27.9967 22.1321C28.5299 21.5823 29.3225 21.248 30.5188 21.248V19.248ZM26.5606 20.7402C25.5924 21.7396 25.1628 23.0703 25.1628 24.604H27.1628C27.1628 23.4497 27.4773 22.6684 27.9971 22.1318L26.5606 20.7402ZM26.1628 23.604H21.2308V25.604H26.1628V23.604ZM22.2308 24.604C22.2308 23.1397 22.5356 21.8481 23.1266 20.7083L21.3511 19.7877C20.5981 21.2399 20.2308 22.8523 20.2308 24.604H22.2308ZM23.1234 20.7144C23.7248 19.5738 24.6153 18.6668 25.8244 17.988L24.8453 16.244C23.3184 17.1012 22.1449 18.2822 21.3543 19.7816L23.1234 20.7144ZM25.8179 17.9916C27.0243 17.326 28.5748 16.964 30.5188 16.964V14.964C28.3349 14.964 26.4294 15.37 24.8518 16.2404L25.8179 17.9916ZM30.5188 16.964C32.442 16.964 33.9702 17.3151 35.1531 17.9585L36.1086 16.2015C34.5555 15.3569 32.6757 14.964 30.5188 14.964V16.964ZM35.1595 17.9619C36.4007 18.6254 37.2965 19.4918 37.8895 20.5551L39.6362 19.5809C38.8372 18.1482 37.645 17.0226 36.1022 16.1981L35.1595 17.9619ZM37.8895 20.5551C38.4989 21.6479 38.8068 22.8472 38.8068 24.172H40.8068C40.8068 22.5208 40.4187 20.9841 39.6362 19.5809L37.8895 20.5551ZM38.8068 24.172V24.64H40.8068V24.172H38.8068ZM38.8068 24.64C38.8068 26.4364 38.314 27.8542 37.3838 28.9664L38.9179 30.2496C40.1956 28.7218 40.8068 26.8276 40.8068 24.64H38.8068ZM37.3896 28.9595C36.4131 30.1058 34.9353 31.1436 32.8895 32.0401L33.6922 33.8719C35.9184 32.8964 37.6806 31.7022 38.9121 30.2565L37.3896 28.9595ZM32.8854 32.0419L28.4214 34.0219L29.2323 35.8501L33.6963 33.8701L32.8854 32.0419ZM28.4422 34.0129C27.5272 34.3942 26.7465 34.8554 26.2549 35.4523L27.7988 36.7237C27.9792 36.5046 28.3985 36.1978 29.2115 35.8591L28.4422 34.0129ZM26.2325 35.4805C25.7556 36.1042 25.5588 36.8627 25.5588 37.672H27.5588C27.5588 37.1853 27.6741 36.8878 27.8212 36.6954L26.2325 35.4805ZM25.5588 37.672V38.644H27.5588V37.672H25.5588ZM26.5588 39.644H39.9148V37.644H26.5588V39.644ZM38.9148 38.644V43H40.9148V38.644H38.9148ZM39.9148 42H21.5548V44H39.9148V42Z" fill="#E94F40"/>
<defs>
<linearGradient id="paint0_linear_633_5" x1="30.5" y1="20" x2="30.5" y2="58.5" gradientUnits="userSpaceOnUse">
<stop stop-color="#E94F40"/>
<stop offset="1" stop-color="#E94F40" stop-opacity="0"/>
</linearGradient>
</defs>
</svg>
