<svg width="60" height="60" viewBox="0 0 60 60" fill="none" xmlns="http://www.w3.org/2000/svg">
<circle cx="30" cy="30" r="30" fill="#E94F40" fill-opacity="0.1"/>
<circle cx="30" cy="30" r="29.5" stroke="#E94F40" stroke-opacity="0.2"/>
<path d="M19.95 37.564V32.02L30.246 16L34.098 18.628L25.026 32.812L25.458 33.532H33.702V24.172H38.418V33.532H41.586V37.564H38.418V43H33.702V37.564H19.95Z" fill="url(#paint0_linear_633_7)"/>
<path d="M19.95 37.564H18.95V38.564H19.95V37.564ZM19.95 32.02L19.1088 31.4793L18.95 31.7264V32.02H19.95ZM30.246 16L30.8096 15.1739L29.9605 14.5947L29.4048 15.4593L30.246 16ZM34.098 18.628L34.9405 19.1668L35.4635 18.349L34.6616 17.8019L34.098 18.628ZM25.026 32.812L24.1836 32.2732L23.8497 32.7952L24.1685 33.3265L25.026 32.812ZM25.458 33.532L24.6005 34.0465L24.8918 34.532H25.458V33.532ZM33.702 33.532V34.532H34.702V33.532H33.702ZM33.702 24.172V23.172H32.702V24.172H33.702ZM38.418 24.172H39.418V23.172H38.418V24.172ZM38.418 33.532H37.418V34.532H38.418V33.532ZM41.586 33.532H42.586V32.532H41.586V33.532ZM41.586 37.564V38.564H42.586V37.564H41.586ZM38.418 37.564V36.564H37.418V37.564H38.418ZM38.418 43V44H39.418V43H38.418ZM33.702 43H32.702V44H33.702V43ZM33.702 37.564H34.702V36.564H33.702V37.564ZM20.95 37.564V32.02H18.95V37.564H20.95ZM20.7913 32.5607L31.0873 16.5407L29.4048 15.4593L19.1088 31.4793L20.7913 32.5607ZM29.6825 16.8261L33.5345 19.4541L34.6616 17.8019L30.8096 15.1739L29.6825 16.8261ZM33.2556 18.0892L24.1836 32.2732L25.8685 33.3508L34.9405 19.1668L33.2556 18.0892ZM24.1685 33.3265L24.6005 34.0465L26.3155 33.0175L25.8835 32.2975L24.1685 33.3265ZM25.458 34.532H33.702V32.532H25.458V34.532ZM34.702 33.532V24.172H32.702V33.532H34.702ZM33.702 25.172H38.418V23.172H33.702V25.172ZM37.418 24.172V33.532H39.418V24.172H37.418ZM38.418 34.532H41.586V32.532H38.418V34.532ZM40.586 33.532V37.564H42.586V33.532H40.586ZM41.586 36.564H38.418V38.564H41.586V36.564ZM37.418 37.564V43H39.418V37.564H37.418ZM38.418 42H33.702V44H38.418V42ZM34.702 43V37.564H32.702V43H34.702ZM33.702 36.564H19.95V38.564H33.702V36.564Z" fill="#E94F40"/>
<defs>
<linearGradient id="paint0_linear_633_7" x1="30.5" y1="20" x2="30.5" y2="58.5" gradientUnits="userSpaceOnUse">
<stop stop-color="#E94F40"/>
<stop offset="1" stop-color="#E94F40" stop-opacity="0"/>
</linearGradient>
</defs>
</svg>
