<svg width="1040" height="179" viewBox="0 0 1040 179" fill="none" xmlns="http://www.w3.org/2000/svg">
<path d="M906 111.936L972.903 44.7L1040 111.762L1006.25 145.7L972.981 112.363L939.693 145.7L906 111.936Z" fill="#E94F40"/>
<path d="M973.168 111.97L940.023 145.115L973.168 178.26L1006.31 145.115L973.168 111.97Z" fill="white"/>
<path d="M121.71 147.14C108.46 165.97 91.0304 174.33 65.0004 174.33C25.7204 174.33 0.380371 145.51 0.380371 109.25C0.380371 75.55 24.7903 44.4 64.5303 44.4C103.58 44.4 130.08 72.29 130.08 111.34C130.08 114.13 129.85 115.52 129.85 118.31H30.3704C33.3904 136.67 47.3404 146.9 65.0004 146.9C78.2504 146.9 87.0804 143.18 95.6804 134.81L121.71 147.14ZM98.9304 93.91C94.7504 79.5 81.5004 70.67 65.0004 70.67C49.6604 70.67 37.8104 78.34 31.7604 93.91H98.9304Z" fill="#E94F40"/>
<path d="M262.55 148.53C249.3 165.73 230.71 174.33 206.53 174.33C164.46 174.33 137.271 145.74 137.271 109.71C137.271 72.75 166.09 44.4 207 44.4C231.17 44.4 251.631 54.39 263.951 72.52L238.15 86.7C229.32 77.4 220.72 72.75 207.24 72.75C183.53 72.75 168.42 88.79 168.42 110.17C168.42 131.09 183.06 145.97 205.84 145.97C219.56 145.97 230.48 141.32 238.15 131.79L262.55 148.53Z" fill="white"/>
<path d="M371.55 158.06C360.63 168.75 349 174.33 333.43 174.33C302.05 174.33 274.62 147.37 274.62 109.48C274.62 70.9 300.65 44.4 332.73 44.4C347.61 44.4 360.39 49.98 371.55 61.13V47.65H402.46V171.07H371.55V158.06V158.06ZM305.78 109.25C305.78 130.4 319.73 145.98 339.02 145.98C358.08 145.98 372.95 131.57 372.95 109.02C372.95 87.41 358.54 72.76 339.02 72.76C318.56 72.76 305.78 89.03 305.78 109.25Z" fill="white"/>
<path d="M452.891 60.21C464.751 50.22 475.67 44.4 489.38 44.4C512.39 44.4 531.68 60.21 531.68 86.7V171.07H500.77V112.74C500.77 88.33 498.68 72.76 479.85 72.76C471.25 72.76 463.81 76.94 458.93 84.61C452.65 94.6 452.891 105.76 452.891 118.54V171.07H421.98V47.65H452.891V60.21Z" fill="white"/>
<path d="M641.15 158.06C630.23 168.75 618.61 174.33 603.03 174.33C571.65 174.33 544.22 147.37 544.22 109.48C544.22 70.9 570.25 44.4 602.33 44.4C617.21 44.4 629.99 49.98 641.15 61.13V0H672.06V171.07H641.15V158.06ZM575.37 109.25C575.37 130.4 589.32 145.98 608.61 145.98C627.67 145.98 642.54 131.57 642.54 109.02C642.54 87.41 628.13 72.76 608.61 72.76C588.16 72.76 575.37 89.03 575.37 109.25Z" fill="white"/>
<path d="M688.561 0.0100098H719.471V171.08H688.561V0.0100098Z" fill="white"/>
<path d="M851.49 147.14C838.24 165.97 820.81 174.33 794.78 174.33C755.5 174.33 730.16 145.51 730.16 109.25C730.16 75.55 754.57 44.4 794.31 44.4C833.36 44.4 859.86 72.29 859.86 111.34C859.86 114.13 859.63 115.52 859.63 118.31H760.15C763.17 136.67 777.12 146.9 794.78 146.9C808.03 146.9 816.86 143.18 825.46 134.81L851.49 147.14ZM828.71 93.91C824.53 79.5 811.28 70.67 794.78 70.67C779.44 70.67 767.59 78.34 761.54 93.91H828.71Z" fill="white"/>
</svg>
