<svg width="73" height="46" viewBox="0 0 73 46" fill="none" xmlns="http://www.w3.org/2000/svg">
<path d="M11.0927 40.42V29.26H0.472656V21.46H11.0927V10.24H19.6127V21.46H30.2927V29.26H19.6127V40.42H11.0927ZM35.1948 37.6V27.34L51.8148 0.939997L59.4348 5.92L45.2148 28.54L46.0548 29.8H58.1748V14.44H67.2348V29.8H72.2748V37.6H67.2348V46H58.1748V37.6H35.1948Z" fill="url(#paint0_linear_438_8)"/>
<path d="M11.0927 40.42H10.0927V41.42H11.0927V40.42ZM11.0927 29.26H12.0927V28.26H11.0927V29.26ZM0.472656 29.26H-0.527344V30.26H0.472656V29.26ZM0.472656 21.46V20.46H-0.527344V21.46H0.472656ZM11.0927 21.46V22.46H12.0927V21.46H11.0927ZM11.0927 10.24V9.24H10.0927V10.24H11.0927ZM19.6127 10.24H20.6127V9.24H19.6127V10.24ZM19.6127 21.46H18.6127V22.46H19.6127V21.46ZM30.2927 21.46H31.2927V20.46H30.2927V21.46ZM30.2927 29.26V30.26H31.2927V29.26H30.2927ZM19.6127 29.26V28.26H18.6127V29.26H19.6127ZM19.6127 40.42V41.42H20.6127V40.42H19.6127ZM12.0927 40.42V29.26H10.0927V40.42H12.0927ZM11.0927 28.26H0.472656V30.26H11.0927V28.26ZM1.47266 29.26V21.46H-0.527344V29.26H1.47266ZM0.472656 22.46H11.0927V20.46H0.472656V22.46ZM12.0927 21.46V10.24H10.0927V21.46H12.0927ZM11.0927 11.24H19.6127V9.24H11.0927V11.24ZM18.6127 10.24V21.46H20.6127V10.24H18.6127ZM19.6127 22.46H30.2927V20.46H19.6127V22.46ZM29.2927 21.46V29.26H31.2927V21.46H29.2927ZM30.2927 28.26H19.6127V30.26H30.2927V28.26ZM18.6127 29.26V40.42H20.6127V29.26H18.6127ZM19.6127 39.42H11.0927V41.42H19.6127V39.42ZM35.1948 37.6H34.1948V38.6H35.1948V37.6ZM35.1948 27.34L34.3486 26.8072L34.1948 27.0514V27.34H35.1948ZM51.8148 0.939997L52.3619 0.102911L51.5105 -0.453541L50.9686 0.407235L51.8148 0.939997ZM59.4348 5.92L60.2815 6.45222L60.8044 5.62041L59.9819 5.08291L59.4348 5.92ZM45.2148 28.54L44.3682 28.0078L44.0236 28.556L44.3828 29.0947L45.2148 28.54ZM46.0548 29.8L45.2228 30.3547L45.5197 30.8H46.0548V29.8ZM58.1748 29.8V30.8H59.1748V29.8H58.1748ZM58.1748 14.44V13.44H57.1748V14.44H58.1748ZM67.2348 14.44H68.2348V13.44H67.2348V14.44ZM67.2348 29.8H66.2348V30.8H67.2348V29.8ZM72.2748 29.8H73.2748V28.8H72.2748V29.8ZM72.2748 37.6V38.6H73.2748V37.6H72.2748ZM67.2348 37.6V36.6H66.2348V37.6H67.2348ZM67.2348 46V47H68.2348V46H67.2348ZM58.1748 46H57.1748V47H58.1748V46ZM58.1748 37.6H59.1748V36.6H58.1748V37.6ZM36.1948 37.6V27.34H34.1948V37.6H36.1948ZM36.0411 27.8728L52.6611 1.47276L50.9686 0.407235L34.3486 26.8072L36.0411 27.8728ZM51.2678 1.77708L58.8878 6.75708L59.9819 5.08291L52.3619 0.102911L51.2678 1.77708ZM58.5882 5.38778L44.3682 28.0078L46.0615 29.0722L60.2815 6.45222L58.5882 5.38778ZM44.3828 29.0947L45.2228 30.3547L46.8869 29.2453L46.0469 27.9853L44.3828 29.0947ZM46.0548 30.8H58.1748V28.8H46.0548V30.8ZM59.1748 29.8V14.44H57.1748V29.8H59.1748ZM58.1748 15.44H67.2348V13.44H58.1748V15.44ZM66.2348 14.44V29.8H68.2348V14.44H66.2348ZM67.2348 30.8H72.2748V28.8H67.2348V30.8ZM71.2748 29.8V37.6H73.2748V29.8H71.2748ZM72.2748 36.6H67.2348V38.6H72.2748V36.6ZM66.2348 37.6V46H68.2348V37.6H66.2348ZM67.2348 45H58.1748V47H67.2348V45ZM59.1748 46V37.6H57.1748V46H59.1748ZM58.1748 36.6H35.1948V38.6H58.1748V36.6Z" fill="#E94F40"/>
<defs>
<linearGradient id="paint0_linear_438_8" x1="35.5" y1="13.5" x2="35.5" y2="52" gradientUnits="userSpaceOnUse">
<stop stop-color="#E94F40"/>
<stop offset="1" stop-color="#E94F40" stop-opacity="0"/>
</linearGradient>
</defs>
</svg>
