<svg width="115" height="48" viewBox="0 0 115 48" fill="none" xmlns="http://www.w3.org/2000/svg">
<path d="M11.0614 40.42V29.26H0.441406V21.46H11.0614V10.24H19.5814V21.46H30.2614V29.26H19.5814V40.42H11.0614ZM52.7436 47.14C49.2636 47.14 46.2636 46.48 43.7436 45.16C41.2236 43.8 39.2836 41.98 37.9236 39.7C36.6036 37.42 35.9436 34.9 35.9436 32.14H45.4236C45.4236 34.22 46.1036 35.88 47.4636 37.12C48.8636 38.36 50.6436 38.98 52.8036 38.98C55.1636 38.98 57.0036 38.28 58.3236 36.88C59.6436 35.44 60.3036 33.62 60.3036 31.42C60.3036 29.26 59.6436 27.44 58.3236 25.96C57.0436 24.48 55.2436 23.74 52.9236 23.74C51.4836 23.74 50.1836 24.04 49.0236 24.64C47.8636 25.24 47.0036 26 46.4436 26.92H37.2036L39.4236 2.2H66.0036V10.6H46.8636L46.0836 19.18C47.1236 18.42 48.3236 17.8 49.6836 17.32C51.0436 16.84 52.6636 16.6 54.5436 16.6C57.7036 16.6 60.4236 17.26 62.7036 18.58C64.9836 19.86 66.7236 21.6 67.9236 23.8C69.1636 25.96 69.7836 28.38 69.7836 31.06V31.84C69.7836 34.52 69.1236 37.04 67.8036 39.4C66.4836 41.72 64.5436 43.6 61.9836 45.04C59.4636 46.44 56.3836 47.14 52.7436 47.14ZM94.7169 47.14C91.2369 47.14 88.2569 46.58 85.7769 45.46C83.2969 44.34 81.2769 42.78 79.7169 40.78C78.1569 38.78 77.0169 36.5 76.2969 33.94C75.5769 31.38 75.2169 28.66 75.2169 25.78V22.36C75.2169 18.4 75.9169 14.8 77.3169 11.56C78.7169 8.28 80.8569 5.68 83.7369 3.76C86.6169 1.84 90.2769 0.879998 94.7169 0.879998C99.1569 0.879998 102.797 1.84 105.637 3.76C108.517 5.68 110.657 8.28 112.057 11.56C113.457 14.8 114.157 18.4 114.157 22.36V25.78C114.157 28.66 113.777 31.38 113.017 33.94C112.297 36.5 111.157 38.78 109.597 40.78C108.077 42.78 106.077 44.34 103.597 45.46C101.157 46.58 98.1969 47.14 94.7169 47.14ZM94.7169 38.08C97.9569 38.08 100.357 36.96 101.917 34.72C103.517 32.44 104.317 28.92 104.317 24.16C104.317 19.12 103.497 15.5 101.857 13.3C100.257 11.06 97.8769 9.94 94.7169 9.94C91.5169 9.94 89.0969 11.04 87.4569 13.24C85.8569 15.44 85.0569 19.04 85.0569 24.04C85.0569 28.88 85.8369 32.44 87.3969 34.72C88.9969 36.96 91.4369 38.08 94.7169 38.08Z" fill="url(#paint0_linear_438_9)"/>
<path d="M11.0614 40.42H10.0614V41.42H11.0614V40.42ZM11.0614 29.26H12.0614V28.26H11.0614V29.26ZM0.441406 29.26H-0.558594V30.26H0.441406V29.26ZM0.441406 21.46V20.46H-0.558594V21.46H0.441406ZM11.0614 21.46V22.46H12.0614V21.46H11.0614ZM11.0614 10.24V9.24H10.0614V10.24H11.0614ZM19.5814 10.24H20.5814V9.24H19.5814V10.24ZM19.5814 21.46H18.5814V22.46H19.5814V21.46ZM30.2614 21.46H31.2614V20.46H30.2614V21.46ZM30.2614 29.26V30.26H31.2614V29.26H30.2614ZM19.5814 29.26V28.26H18.5814V29.26H19.5814ZM19.5814 40.42V41.42H20.5814V40.42H19.5814ZM12.0614 40.42V29.26H10.0614V40.42H12.0614ZM11.0614 28.26H0.441406V30.26H11.0614V28.26ZM1.44141 29.26V21.46H-0.558594V29.26H1.44141ZM0.441406 22.46H11.0614V20.46H0.441406V22.46ZM12.0614 21.46V10.24H10.0614V21.46H12.0614ZM11.0614 11.24H19.5814V9.24H11.0614V11.24ZM18.5814 10.24V21.46H20.5814V10.24H18.5814ZM19.5814 22.46H30.2614V20.46H19.5814V22.46ZM29.2614 21.46V29.26H31.2614V21.46H29.2614ZM30.2614 28.26H19.5814V30.26H30.2614V28.26ZM18.5814 29.26V40.42H20.5814V29.26H18.5814ZM19.5814 39.42H11.0614V41.42H19.5814V39.42ZM43.7436 45.16L43.2686 46.0401L43.2796 46.0458L43.7436 45.16ZM37.9236 39.7L37.0581 40.2011L37.0648 40.2123L37.9236 39.7ZM35.9436 32.14V31.14H34.9436V32.14H35.9436ZM45.4236 32.14H46.4236V31.14H45.4236V32.14ZM47.4636 37.12L46.7898 37.859L46.7952 37.8638L46.8006 37.8686L47.4636 37.12ZM58.3236 36.88L59.0513 37.5661L59.0607 37.5557L58.3236 36.88ZM58.3236 25.96L57.5672 26.6142L57.5722 26.6199L57.5773 26.6256L58.3236 25.96ZM49.0236 24.64L49.483 25.5282L49.0236 24.64ZM46.4436 26.92V27.92H47.0056L47.2978 27.4399L46.4436 26.92ZM37.2036 26.92L36.2076 26.8306L36.1098 27.92H37.2036V26.92ZM39.4236 2.2V1.2H38.5094L38.4276 2.11055L39.4236 2.2ZM66.0036 2.2H67.0036V1.2H66.0036V2.2ZM66.0036 10.6V11.6H67.0036V10.6H66.0036ZM46.8636 10.6V9.6H45.9504L45.8677 10.5095L46.8636 10.6ZM46.0836 19.18L45.0877 19.0895L44.8874 21.2927L46.6736 19.9874L46.0836 19.18ZM49.6836 17.32L49.3508 16.377L49.6836 17.32ZM62.7036 18.58L62.2025 19.4455L62.2141 19.452L62.7036 18.58ZM67.9236 23.8L67.0457 24.2789L67.0509 24.2884L67.0563 24.2979L67.9236 23.8ZM67.8036 39.4L68.6728 39.8945L68.6764 39.8882L67.8036 39.4ZM61.9836 45.04L62.4692 45.9142L62.4739 45.9116L61.9836 45.04ZM52.7436 46.14C49.3896 46.14 46.5559 45.5042 44.2076 44.2742L43.2796 46.0458C45.9713 47.4558 49.1376 48.14 52.7436 48.14V46.14ZM44.2185 44.28C41.8444 42.9987 40.0427 41.3006 38.7824 39.1877L37.0648 40.2123C38.5245 42.6594 40.6028 44.6013 43.2687 46.04L44.2185 44.28ZM38.789 39.199C37.5614 37.0786 36.9436 34.7328 36.9436 32.14H34.9436C34.9436 35.0672 35.6457 37.7614 37.0582 40.201L38.789 39.199ZM35.9436 33.14H45.4236V31.14H35.9436V33.14ZM44.4236 32.14C44.4236 34.4607 45.1939 36.4038 46.7898 37.859L48.1373 36.381C47.0133 35.3562 46.4236 33.9793 46.4236 32.14H44.4236ZM46.8006 37.8686C48.4115 39.2954 50.4396 39.98 52.8036 39.98V37.98C50.8476 37.98 49.3157 37.4246 48.1266 36.3714L46.8006 37.8686ZM52.8036 39.98C55.3721 39.98 57.5008 39.2104 59.0512 37.566L57.596 36.194C56.5064 37.3496 54.9551 37.98 52.8036 37.98V39.98ZM59.0607 37.5557C60.5715 35.9077 61.3036 33.8362 61.3036 31.42H59.3036C59.3036 33.4038 58.7157 34.9723 57.5864 36.2043L59.0607 37.5557ZM61.3036 31.42C61.3036 29.0382 60.5684 26.9745 59.0699 25.2944L57.5773 26.6256C58.7188 27.9054 59.3036 29.4818 59.3036 31.42H61.3036ZM59.08 25.3058C57.5744 23.565 55.4747 22.74 52.9236 22.74V24.74C55.0125 24.74 56.5128 25.395 57.5672 26.6142L59.08 25.3058ZM52.9236 22.74C51.3404 22.74 49.8803 23.071 48.5642 23.7518L49.483 25.5282C50.4869 25.009 51.6268 24.74 52.9236 24.74V22.74ZM48.5642 23.7518C47.276 24.4181 46.2632 25.2931 45.5894 26.4001L47.2978 27.4399C47.744 26.7069 48.4512 26.0619 49.483 25.5282L48.5642 23.7518ZM46.4436 25.92H37.2036V27.92H46.4436V25.92ZM38.1996 27.0094L40.4196 2.28944L38.4276 2.11055L36.2076 26.8306L38.1996 27.0094ZM39.4236 3.2H66.0036V1.2H39.4236V3.2ZM65.0036 2.2V10.6H67.0036V2.2H65.0036ZM66.0036 9.6H46.8636V11.6H66.0036V9.6ZM45.8677 10.5095L45.0877 19.0895L47.0795 19.2705L47.8595 10.6905L45.8677 10.5095ZM46.6736 19.9874C47.6262 19.2913 48.7375 18.7144 50.0164 18.263L49.3508 16.377C47.9097 16.8856 46.621 17.5487 45.4936 18.3726L46.6736 19.9874ZM50.0164 18.263C51.2426 17.8302 52.7444 17.6 54.5436 17.6V15.6C52.5828 15.6 50.8446 15.8498 49.3508 16.377L50.0164 18.263ZM54.5436 17.6C57.5628 17.6 60.1026 18.2297 62.2026 19.4454L63.2046 17.7146C60.7446 16.2903 57.8444 15.6 54.5436 15.6V17.6ZM62.2141 19.452C64.3377 20.6442 65.9397 22.2511 67.0457 24.2789L68.8015 23.3211C67.5075 20.9489 65.6295 19.0758 63.1931 17.708L62.2141 19.452ZM67.0563 24.2979C68.2028 26.2949 68.7836 28.541 68.7836 31.06H70.7836C70.7836 28.219 70.1244 25.6251 68.7908 23.3021L67.0563 24.2979ZM68.7836 31.06V31.84H70.7836V31.06H68.7836ZM68.7836 31.84C68.7836 34.3475 68.1682 36.6996 66.9308 38.9118L68.6764 39.8882C70.079 37.3804 70.7836 34.6925 70.7836 31.84H68.7836ZM66.9344 38.9055C65.713 41.0522 63.9115 42.8082 61.4933 44.1684L62.4739 45.9116C65.1757 44.3918 67.2542 42.3878 68.6728 39.8945L66.9344 38.9055ZM61.498 44.1658C59.1606 45.4644 56.2575 46.14 52.7436 46.14V48.14C56.5097 48.14 59.7666 47.4156 62.4692 45.9142L61.498 44.1658ZM85.7769 45.46L86.1885 44.5486L85.7769 45.46ZM79.7169 40.78L78.9284 41.395L79.7169 40.78ZM76.2969 33.94L75.3342 34.2107L76.2969 33.94ZM77.3169 11.56L78.2349 11.9567L78.2366 11.9526L77.3169 11.56ZM83.7369 3.76L83.1822 2.92795V2.92795L83.7369 3.76ZM105.637 3.76L105.077 4.58846L105.082 4.59205L105.637 3.76ZM112.057 11.56L111.137 11.9526L111.139 11.9567L112.057 11.56ZM113.017 33.94L112.058 33.6554L112.056 33.6623L112.054 33.6693L113.017 33.94ZM109.597 40.78L108.808 40.1649L108.801 40.1749L109.597 40.78ZM103.597 45.46L103.185 44.5486L103.18 44.5512L103.597 45.46ZM101.917 34.72L101.098 34.1456L101.096 34.1485L101.917 34.72ZM101.857 13.3L101.043 13.8812L101.049 13.8895L101.055 13.8977L101.857 13.3ZM87.4569 13.24L86.6551 12.6423L86.6481 12.6518L87.4569 13.24ZM87.3969 34.72L86.5716 35.2847L86.5773 35.293L86.5831 35.3012L87.3969 34.72ZM94.7169 46.14C91.3407 46.14 88.5084 45.5963 86.1885 44.5486L85.3653 46.3714C88.0054 47.5637 91.1331 48.14 94.7169 48.14V46.14ZM86.1885 44.5486C83.8452 43.4904 81.9584 42.0279 80.5054 40.165L78.9284 41.395C80.5953 43.5321 82.7485 45.1896 85.3653 46.3714L86.1885 44.5486ZM80.5054 40.165C79.0291 38.2723 77.9461 36.1104 77.2595 33.6693L75.3342 34.2107C76.0876 36.8896 77.2847 39.2877 78.9284 41.395L80.5054 40.165ZM77.2595 33.6693C76.5663 31.2043 76.2169 28.576 76.2169 25.78H74.2169C74.2169 28.744 74.5875 31.5557 75.3342 34.2107L77.2595 33.6693ZM76.2169 25.78V22.36H74.2169V25.78H76.2169ZM76.2169 22.36C76.2169 18.5198 76.8952 15.057 78.2348 11.9567L76.3989 11.1633C74.9386 14.543 74.2169 18.2802 74.2169 22.36H76.2169ZM78.2366 11.9526C79.5627 8.8457 81.5785 6.40076 84.2916 4.59205L83.1822 2.92795C80.1352 4.95924 77.871 7.7143 76.3971 11.1674L78.2366 11.9526ZM84.2916 4.59205C86.9666 2.80873 90.4189 1.88 94.7169 1.88V-0.120002C90.1349 -0.120002 86.2672 0.871269 83.1822 2.92795L84.2916 4.59205ZM94.7169 1.88C99.0157 1.88 102.445 2.80901 105.077 4.58844L106.197 2.93155C103.149 0.87098 99.2981 -0.120002 94.7169 -0.120002V1.88ZM105.082 4.59205C107.795 6.40076 109.811 8.8457 111.137 11.9526L112.977 11.1674C111.503 7.7143 109.239 4.95924 106.192 2.92795L105.082 4.59205ZM111.139 11.9567C112.479 15.057 113.157 18.5198 113.157 22.36H115.157C115.157 18.2802 114.435 14.543 112.975 11.1633L111.139 11.9567ZM113.157 22.36V25.78H115.157V22.36H113.157ZM113.157 25.78C113.157 28.5712 112.789 31.1947 112.058 33.6554L113.976 34.2246C114.765 31.5653 115.157 28.7488 115.157 25.78H113.157ZM112.054 33.6693C111.368 36.1104 110.285 38.2723 108.808 40.165L110.385 41.395C112.029 39.2877 113.226 36.8896 113.98 34.2107L112.054 33.6693ZM108.801 40.1749C107.39 42.0315 105.527 43.4913 103.185 44.5486L104.008 46.3714C106.627 45.1887 108.764 43.5285 110.393 41.3851L108.801 40.1749ZM103.18 44.5512C100.903 45.5961 98.0938 46.14 94.7169 46.14V48.14C98.2999 48.14 101.41 47.5639 104.014 46.3688L103.18 44.5512ZM94.7169 39.08C98.2141 39.08 100.954 37.8527 102.737 35.2915L101.096 34.1485C99.7599 36.0673 97.6997 37.08 94.7169 37.08V39.08ZM102.735 35.2944C104.511 32.7642 105.317 28.9953 105.317 24.16H103.317C103.317 28.8447 102.523 32.1158 101.098 34.1456L102.735 35.2944ZM105.317 24.16C105.317 19.0615 104.497 15.1685 102.659 12.7023L101.055 13.8977C102.497 15.8315 103.317 19.1785 103.317 24.16H105.317ZM102.671 12.7188C100.853 10.1742 98.1449 8.94 94.7169 8.94V10.94C97.6089 10.94 99.6607 11.9458 101.043 13.8812L102.671 12.7188ZM94.7169 8.94C91.2607 8.94 88.5168 10.1449 86.6551 12.6423L88.2586 13.8377C89.6769 11.9351 91.7731 10.94 94.7169 10.94V8.94ZM86.6481 12.6518C84.8566 15.1152 84.0569 18.9824 84.0569 24.04H86.0569C86.0569 19.0976 86.8571 15.7648 88.2656 13.8282L86.6481 12.6518ZM84.0569 24.04C84.0569 28.9479 84.8404 32.7546 86.5716 35.2847L88.2222 34.1553C86.8333 32.1254 86.0569 28.8121 86.0569 24.04H84.0569ZM86.5831 35.3012C88.4083 37.8565 91.1842 39.08 94.7169 39.08V37.08C91.6895 37.08 89.5854 36.0635 88.2106 34.1388L86.5831 35.3012Z" fill="#E94F40"/>
<defs>
<linearGradient id="paint0_linear_438_9" x1="57.5" y1="7" x2="57.5" y2="52.5" gradientUnits="userSpaceOnUse">
<stop stop-color="#E94F40"/>
<stop offset="1" stop-color="#E94F40" stop-opacity="0"/>
</linearGradient>
</defs>
</svg>
