<svg width="263" height="57" viewBox="0 0 263 57" fill="none" xmlns="http://www.w3.org/2000/svg">
<path d="M18.1116 0.939997C22.4316 0.939997 25.9316 1.88 28.6116 3.76C31.3316 5.6 33.3116 8.12 34.5516 11.32C35.7916 14.48 36.4116 17.98 36.4116 21.82V24.34C36.4116 31.62 34.5516 37.12 30.8316 40.84C27.1116 44.52 21.6316 46.36 14.3916 46.36C12.9116 46.36 11.4516 46.32 10.0116 46.24C8.57164 46.16 7.17164 46.04 5.81164 45.88V37.66C7.13164 37.78 8.55164 37.9 10.0716 38.02C11.5916 38.1 13.1516 38.14 14.7516 38.14C19.2316 38.14 22.3916 37.12 24.2316 35.08C26.0716 33.04 27.0916 30.02 27.2916 26.02C26.0916 27.82 24.4916 29.18 22.4916 30.1C20.4916 31.02 18.1916 31.48 15.5916 31.48C12.5116 31.48 9.85164 30.88 7.61164 29.68C5.37164 28.44 3.65164 26.72 2.45164 24.52C1.25164 22.28 0.651641 19.68 0.651641 16.72C0.651641 13.56 1.37164 10.8 2.81164 8.44C4.25164 6.04 6.27164 4.2 8.87164 2.92C11.5116 1.6 14.5916 0.939997 18.1116 0.939997ZM18.4116 9.1C15.7716 9.1 13.7316 9.78 12.2916 11.14C10.8516 12.5 10.1316 14.3 10.1316 16.54C10.1316 18.78 10.8316 20.58 12.2316 21.94C13.6716 23.3 15.6516 23.98 18.1716 23.98C20.4916 23.98 22.4916 23.36 24.1716 22.12C25.8516 20.88 26.6916 19.02 26.6916 16.54C26.6916 14.38 25.9916 12.6 24.5916 11.2C23.1916 9.8 21.1316 9.1 18.4116 9.1ZM42.503 46V35.26H53.063V46H42.503ZM76.0093 47.26C72.4893 47.26 69.4093 46.74 66.7693 45.7C64.1693 44.66 62.1293 43.14 60.6493 41.14C59.2093 39.14 58.4893 36.7 58.4893 33.82C58.4893 31.1 59.1493 28.82 60.4693 26.98C61.8293 25.14 63.6093 23.8 65.8093 22.96V22.18C64.0893 21.5 62.6493 20.4 61.4893 18.88C60.3693 17.36 59.8093 15.4 59.8093 13C59.8093 10.32 60.5093 8.1 61.9093 6.34C63.3493 4.54 65.2893 3.2 67.7293 2.32C70.1693 1.4 72.9293 0.939997 76.0093 0.939997C79.1293 0.939997 81.9093 1.4 84.3493 2.32C86.7893 3.2 88.7093 4.54 90.1093 6.34C91.5093 8.1 92.2093 10.32 92.2093 13C92.2093 15.4 91.6493 17.36 90.5293 18.88C89.4093 20.4 87.9693 21.5 86.2093 22.18V22.96C88.4493 23.8 90.2293 25.14 91.5493 26.98C92.9093 28.82 93.5893 31.1 93.5893 33.82C93.5893 36.7 92.8493 39.14 91.3693 41.14C89.9293 43.14 87.8893 44.66 85.2493 45.7C82.6093 46.74 79.5293 47.26 76.0093 47.26ZM76.0093 19C78.0893 19 79.7293 18.58 80.9293 17.74C82.1293 16.9 82.7293 15.64 82.7293 13.96C82.7293 12.32 82.1293 11.08 80.9293 10.24C79.7293 9.4 78.0893 8.98 76.0093 8.98C73.9293 8.98 72.2893 9.42 71.0893 10.3C69.8893 11.14 69.2893 12.36 69.2893 13.96C69.2893 15.64 69.8893 16.9 71.0893 17.74C72.2893 18.58 73.9293 19 76.0093 19ZM76.0093 39.16C78.4493 39.16 80.4093 38.62 81.8893 37.54C83.3693 36.46 84.1093 34.84 84.1093 32.68C84.1093 30.6 83.3693 29.02 81.8893 27.94C80.4093 26.82 78.4493 26.26 76.0093 26.26C73.5693 26.26 71.6293 26.82 70.1893 27.94C68.7493 29.02 68.0293 30.6 68.0293 32.68C68.0293 34.84 68.7493 36.46 70.1893 37.54C71.6293 38.62 73.5693 39.16 76.0093 39.16ZM104.629 46L119.989 11.14L119.329 10.24H106.009V17.32H98.0288V2.2H131.209V8.44L115.069 46H104.629ZM141.074 46L156.434 11.14L155.774 10.24H142.454V17.32H134.474V2.2H167.654V8.44L151.514 46H141.074ZM176.739 56.26L169.359 53.38L175.659 35.02L183.819 38.02L176.739 56.26ZM188.946 46V37C188.946 34.2 189.646 31.9 191.046 30.1C192.486 28.3 194.886 26.68 198.246 25.24L205.326 22.18C207.086 21.42 208.406 20.48 209.286 19.36C210.166 18.24 210.606 16.82 210.606 15.1C210.606 13.34 210.046 11.9 208.926 10.78C207.846 9.66 206.286 9.1 204.246 9.1C202.166 9.1 200.586 9.68 199.506 10.84C198.426 12 197.886 13.56 197.886 15.52H188.346C188.346 12.76 188.946 10.28 190.146 8.08C191.346 5.88 193.126 4.14 195.486 2.86C197.846 1.54 200.766 0.879998 204.246 0.879998C207.686 0.879998 210.586 1.5 212.946 2.74C215.306 3.98 217.086 5.66 218.286 7.78C219.526 9.86 220.146 12.18 220.146 14.74V15.46C220.146 18.82 219.226 21.6 217.386 23.8C215.546 26 212.706 27.92 208.866 29.56L201.846 32.62C200.646 33.14 199.786 33.7 199.266 34.3C198.786 34.86 198.546 35.6 198.546 36.52V37.54H220.206V46H188.946ZM225.236 37.6V27.34L241.856 0.939997L249.476 5.92L235.256 28.54L236.096 29.8H248.216V14.44H257.276V29.8H262.316V37.6H257.276V46H248.216V37.6H225.236Z" fill="url(#paint0_linear_438_7)"/>
<path d="M28.6116 3.76L28.0374 4.57865L28.0443 4.58353L28.0513 4.58828L28.6116 3.76ZM34.5516 11.32L33.6192 11.6813L33.6208 11.6853L34.5516 11.32ZM30.8316 40.84L31.5349 41.5509L31.5387 41.5471L30.8316 40.84ZM10.0116 46.24L9.95617 47.2385L10.0116 46.24ZM5.81164 45.88H4.81164V46.7692L5.6948 46.8731L5.81164 45.88ZM5.81164 37.66L5.90218 36.6641L4.81164 36.565V37.66H5.81164ZM10.0716 38.02L9.99294 39.0169L10.006 39.0179L10.0191 39.0186L10.0716 38.02ZM27.2916 26.02L28.2904 26.0699L28.4715 22.4474L26.4596 25.4653L27.2916 26.02ZM7.61164 29.68L7.12728 30.555L7.13942 30.5615L7.61164 29.68ZM2.45164 24.52L1.57014 24.9922L1.57375 24.9989L2.45164 24.52ZM2.81164 8.44L3.6653 8.96088L3.66913 8.95449L2.81164 8.44ZM8.87164 2.92L9.31333 3.81718L9.31885 3.81442L8.87164 2.92ZM12.2916 11.14L11.605 10.413L12.2916 11.14ZM12.2316 21.94L11.5348 22.6573L11.545 22.667L12.2316 21.94ZM24.1716 22.12L23.5778 21.3154L24.1716 22.12ZM24.5916 11.2L25.2987 10.4929V10.4929L24.5916 11.2ZM18.1116 1.94C22.2911 1.94 25.5719 2.84918 28.0374 4.57865L29.1859 2.94134C26.2913 0.910815 22.5722 -0.0600028 18.1116 -0.0600028V1.94ZM28.0513 4.58828C30.5947 6.30882 32.4493 8.66216 33.6192 11.6813L35.4841 10.9587C34.174 7.57783 32.0685 4.89117 29.172 2.93171L28.0513 4.58828ZM33.6208 11.6853C34.8095 14.7147 35.4116 18.0887 35.4116 21.82H37.4116C37.4116 17.8713 36.7738 14.2453 35.4825 10.9547L33.6208 11.6853ZM35.4116 21.82V24.34H37.4116V21.82H35.4116ZM35.4116 24.34C35.4116 31.4585 33.5946 36.6629 30.1245 40.1329L31.5387 41.5471C35.5087 37.5771 37.4116 31.7815 37.4116 24.34H35.4116ZM30.1284 40.1291C26.6578 43.5623 21.4711 45.36 14.3916 45.36V47.36C21.7922 47.36 27.5655 45.4777 31.5349 41.5509L30.1284 40.1291ZM14.3916 45.36C12.9297 45.36 11.4882 45.3205 10.0671 45.2415L9.95617 47.2385C11.4151 47.3195 12.8936 47.36 14.3916 47.36V45.36ZM10.0671 45.2415C8.64654 45.1626 7.26704 45.0443 5.92848 44.8868L5.6948 46.8731C7.07624 47.0357 8.49674 47.1574 9.95617 47.2385L10.0671 45.2415ZM6.81164 45.88V37.66H4.81164V45.88H6.81164ZM5.72111 38.6559C7.04558 38.7763 8.46956 38.8966 9.99294 39.0169L10.1503 37.0231C8.63372 36.9034 7.2177 36.7837 5.90218 36.6641L5.72111 38.6559ZM10.0191 39.0186C11.5575 39.0996 13.135 39.14 14.7516 39.14V37.14C13.1683 37.14 11.6258 37.1004 10.1242 37.0214L10.0191 39.0186ZM14.7516 39.14C19.3415 39.14 22.8534 38.1011 24.9742 35.7498L23.4891 34.4102C21.9299 36.1389 19.1217 37.14 14.7516 37.14V39.14ZM24.9742 35.7498C27.0253 33.4757 28.084 30.1977 28.2904 26.0699L26.2929 25.9701C26.0993 29.8423 25.118 32.6043 23.4891 34.4102L24.9742 35.7498ZM26.4596 25.4653C25.3641 27.1085 23.9087 28.3474 22.0737 29.1915L22.9095 31.0085C25.0745 30.0126 26.8191 28.5315 28.1237 26.5747L26.4596 25.4653ZM22.0737 29.1915C20.2264 30.0413 18.0732 30.48 15.5916 30.48V32.48C18.3101 32.48 20.7569 31.9987 22.9095 31.0085L22.0737 29.1915ZM15.5916 30.48C12.6418 30.48 10.1509 29.9058 8.08386 28.7985L7.13942 30.5615C9.55241 31.8541 12.3815 32.48 15.5916 32.48V30.48ZM8.09596 28.8051C6.01828 27.655 4.43654 26.0707 3.32954 24.0411L1.57375 24.9989C2.86674 27.3693 4.725 29.225 7.12733 30.5549L8.09596 28.8051ZM3.33312 24.0478C2.22286 21.9753 1.65164 19.5425 1.65164 16.72H-0.348359C-0.348359 19.8175 0.280424 22.5847 1.57016 24.9922L3.33312 24.0478ZM1.65164 16.72C1.65164 13.7169 2.33407 11.1426 3.66528 8.96086L1.958 7.91913C0.409208 10.4574 -0.348359 13.4031 -0.348359 16.72H1.65164ZM3.66913 8.95449C5.00657 6.72543 6.87939 5.01541 9.31332 3.81717L8.42996 2.02283C5.66389 3.38458 3.49671 5.35456 1.95415 7.9255L3.66913 8.95449ZM9.31885 3.81442C11.7957 2.57599 14.7172 1.94 18.1116 1.94V-0.0600028C14.466 -0.0600028 11.2276 0.624 8.42443 2.02557L9.31885 3.81442ZM18.4116 8.1C15.6034 8.1 13.2855 8.82585 11.605 10.413L12.9783 11.867C14.1778 10.7341 15.9399 10.1 18.4116 10.1V8.1ZM11.605 10.413C9.93791 11.9875 9.13164 14.0645 9.13164 16.54H11.1316C11.1316 14.5355 11.7654 13.0125 12.9783 11.867L11.605 10.413ZM9.13164 16.54C9.13164 19.0067 9.91189 21.0807 11.5349 22.6573L12.9284 21.2227C11.7514 20.0793 11.1316 18.5533 11.1316 16.54H9.13164ZM11.545 22.667C13.2173 24.2464 15.4687 24.98 18.1716 24.98V22.98C15.8346 22.98 14.126 22.3536 12.9183 21.213L11.545 22.667ZM18.1716 24.98C20.6805 24.98 22.8945 24.3056 24.7655 22.9246L23.5778 21.3154C22.0888 22.4144 20.3028 22.98 18.1716 22.98V24.98ZM24.7655 22.9246C26.7507 21.4593 27.6916 19.2701 27.6916 16.54H25.6916C25.6916 18.7699 24.9526 20.3007 23.5778 21.3154L24.7655 22.9246ZM27.6916 16.54C27.6916 14.1413 26.9043 12.0984 25.2987 10.4929L23.8845 11.9071C25.079 13.1016 25.6916 14.6186 25.6916 16.54H27.6916ZM25.2987 10.4929C23.65 8.84416 21.2955 8.1 18.4116 8.1V10.1C20.9677 10.1 22.7333 10.7558 23.8845 11.9071L25.2987 10.4929ZM42.503 46H41.503V47H42.503V46ZM42.503 35.26V34.26H41.503V35.26H42.503ZM53.063 35.26H54.063V34.26H53.063V35.26ZM53.063 46V47H54.063V46H53.063ZM43.503 46V35.26H41.503V46H43.503ZM42.503 36.26H53.063V34.26H42.503V36.26ZM52.063 35.26V46H54.063V35.26H52.063ZM53.063 45H42.503V47H53.063V45ZM66.7693 45.7L66.3979 46.6285L66.4028 46.6304L66.7693 45.7ZM60.6493 41.14L59.8377 41.7244L59.8455 41.7348L60.6493 41.14ZM60.4693 26.98L59.6651 26.3856L59.6609 26.3913L59.6568 26.3971L60.4693 26.98ZM65.8093 22.96L66.166 23.8942L66.8093 23.6486V22.96H65.8093ZM65.8093 22.18H66.8093V21.5L66.177 21.25L65.8093 22.18ZM61.4893 18.88L60.6842 19.4732L60.6892 19.48L60.6943 19.4867L61.4893 18.88ZM61.9093 6.34L61.1284 5.7153L61.1267 5.71747L61.9093 6.34ZM67.7293 2.32L68.0686 3.26069L68.0753 3.25824L68.0821 3.25569L67.7293 2.32ZM84.3493 2.32L83.9965 3.25569L84.0032 3.25824L84.01 3.26069L84.3493 2.32ZM90.1093 6.34L89.3199 6.95398L89.3267 6.96252L90.1093 6.34ZM86.2093 22.18L85.8489 21.2472L85.2093 21.4943V22.18H86.2093ZM86.2093 22.96H85.2093V23.653L85.8582 23.8963L86.2093 22.96ZM91.5493 26.98L90.7368 27.5629L90.7409 27.5687L90.7451 27.5744L91.5493 26.98ZM91.3693 41.14L90.5654 40.5451L90.5578 40.5557L91.3693 41.14ZM85.2493 45.7L84.8828 44.7696L85.2493 45.7ZM80.9293 10.24L80.3558 11.0592V11.0592L80.9293 10.24ZM71.0893 10.3L71.6628 11.1192L71.6718 11.1129L71.6807 11.1064L71.0893 10.3ZM81.8893 37.54L82.4788 38.3478L81.8893 37.54ZM81.8893 27.94L81.2859 28.7374L81.2928 28.7427L81.2998 28.7478L81.8893 27.94ZM70.1893 27.94L70.7893 28.74L70.7963 28.7347L70.8032 28.7294L70.1893 27.94ZM70.1893 37.54L69.5893 38.34L70.1893 37.54ZM76.0093 46.26C72.5856 46.26 69.6347 45.754 67.1358 44.7696L66.4028 46.6304C69.1839 47.726 72.393 48.26 76.0093 48.26V46.26ZM67.1407 44.7715C64.6908 43.7916 62.8093 42.3778 61.4531 40.5452L59.8455 41.7348C61.4493 43.9021 63.6478 45.5284 66.3979 46.6285L67.1407 44.7715ZM61.4608 40.5557C60.1631 38.7533 59.4893 36.5268 59.4893 33.82H57.4893C57.4893 36.8732 58.2555 39.5267 59.8378 41.7243L61.4608 40.5557ZM59.4893 33.82C59.4893 31.2661 60.1066 29.2011 61.2818 27.5629L59.6568 26.3971C58.192 28.4389 57.4893 30.9339 57.4893 33.82H59.4893ZM61.2735 27.5744C62.5164 25.8928 64.1391 24.6681 66.166 23.8942L65.4526 22.0258C63.0795 22.9319 61.1422 24.3872 59.6651 26.3856L61.2735 27.5744ZM66.8093 22.96V22.18H64.8093V22.96H66.8093ZM66.177 21.25C64.632 20.6393 63.3378 19.6538 62.2842 18.2733L60.6943 19.4867C61.9608 21.1462 63.5466 22.3607 65.4416 23.11L66.177 21.25ZM62.2943 18.2868C61.3317 16.9803 60.8093 15.2448 60.8093 13H58.8093C58.8093 15.5552 59.4069 17.7397 60.6842 19.4732L62.2943 18.2868ZM60.8093 13C60.8093 10.5011 61.4583 8.51329 62.6919 6.96252L61.1267 5.71747C59.5603 7.6867 58.8093 10.1389 58.8093 13H60.8093ZM62.6902 6.96469C64.001 5.32619 65.7798 4.08615 68.0686 3.26069L67.39 1.37931C64.7988 2.31385 62.6976 3.7538 61.1284 5.7153L62.6902 6.96469ZM68.0821 3.25569C70.3909 2.38515 73.0285 1.94 76.0093 1.94V-0.0600028C72.8301 -0.0600028 69.9477 0.414846 67.3765 1.3843L68.0821 3.25569ZM76.0093 1.94C79.0319 1.94 81.689 2.38566 83.9965 3.25569L84.7021 1.3843C82.1296 0.414336 79.2267 -0.0600028 76.0093 -0.0600028V1.94ZM84.01 3.26069C86.2972 4.08557 88.0514 5.32297 89.3199 6.95394L90.8987 5.72606C89.3672 3.75703 87.2814 2.31442 84.6886 1.37931L84.01 3.26069ZM89.3267 6.96252C90.5603 8.51329 91.2093 10.5011 91.2093 13H93.2093C93.2093 10.1389 92.4583 7.6867 90.8919 5.71747L89.3267 6.96252ZM91.2093 13C91.2093 15.2448 90.6869 16.9803 89.7242 18.2868L91.3344 19.4732C92.6117 17.7397 93.2093 15.5552 93.2093 13H91.2093ZM89.7242 18.2868C88.717 19.6537 87.4313 20.6358 85.8489 21.2472L86.5697 23.1128C88.5073 22.3642 90.1015 21.1463 91.3344 19.4732L89.7242 18.2868ZM85.2093 22.18V22.96H87.2093V22.18H85.2093ZM85.8582 23.8963C87.9238 24.6709 89.5389 25.8931 90.7368 27.5629L92.3618 26.3971C90.9197 24.3869 88.9748 22.9291 86.5604 22.0237L85.8582 23.8963ZM90.7451 27.5744C91.9553 29.2116 92.5893 31.2724 92.5893 33.82H94.5893C94.5893 30.9276 93.8633 28.4284 92.3535 26.3856L90.7451 27.5744ZM92.5893 33.82C92.5893 36.5209 91.8987 38.7435 90.5655 40.5452L92.1731 41.7348C93.7999 39.5365 94.5893 36.8791 94.5893 33.82H92.5893ZM90.5578 40.5557C89.246 42.3776 87.372 43.789 84.8828 44.7696L85.6158 46.6304C88.4066 45.531 90.6126 43.9024 92.1808 41.7243L90.5578 40.5557ZM84.8828 44.7696C82.3839 45.754 79.433 46.26 76.0093 46.26V48.26C79.6256 48.26 82.8347 47.726 85.6158 46.6304L84.8828 44.7696ZM76.0093 20C78.2115 20 80.0775 19.5569 81.5028 18.5592L80.3558 16.9208C79.3811 17.6031 77.9671 18 76.0093 18V20ZM81.5028 18.5592C83.0124 17.5025 83.7293 15.911 83.7293 13.96H81.7293C81.7293 15.369 81.2462 16.2975 80.3558 16.9208L81.5028 18.5592ZM83.7293 13.96C83.7293 12.0391 83.0052 10.4725 81.5028 9.42077L80.3558 11.0592C81.2534 11.6875 81.7293 12.6009 81.7293 13.96H83.7293ZM81.5028 9.42077C80.0775 8.42311 78.2115 7.98 76.0093 7.98V9.98C77.9671 9.98 79.3811 10.3769 80.3558 11.0592L81.5028 9.42077ZM76.0093 7.98C73.799 7.98 71.9257 8.44655 70.4979 9.49359L71.6807 11.1064C72.6529 10.3934 74.0596 9.98 76.0093 9.98V7.98ZM70.5158 9.48077C69.0209 10.5273 68.2893 12.069 68.2893 13.96H70.2893C70.2893 12.651 70.7577 11.7527 71.6628 11.1192L70.5158 9.48077ZM68.2893 13.96C68.2893 15.911 69.0062 17.5025 70.5158 18.5592L71.6628 16.9208C70.7724 16.2975 70.2893 15.369 70.2893 13.96H68.2893ZM70.5158 18.5592C71.9411 19.5569 73.8071 20 76.0093 20V18C74.0515 18 72.6375 17.6031 71.6628 16.9208L70.5158 18.5592ZM76.0093 40.16C78.5916 40.16 80.7788 39.5883 82.4788 38.3478L81.2998 36.7322C80.0398 37.6517 78.307 38.16 76.0093 38.16V40.16ZM82.4788 38.3478C84.2651 37.0443 85.1093 35.0944 85.1093 32.68H83.1093C83.1093 34.5856 82.4735 35.8757 81.2998 36.7322L82.4788 38.3478ZM85.1093 32.68C85.1093 30.3303 84.2544 28.4279 82.4788 27.1322L81.2998 28.7478C82.4842 29.6121 83.1093 30.8697 83.1093 32.68H85.1093ZM82.4927 27.1426C80.7914 25.8551 78.5987 25.26 76.0093 25.26V27.26C78.2999 27.26 80.0272 27.7849 81.2859 28.7374L82.4927 27.1426ZM76.0093 25.26C73.4217 25.26 71.242 25.8544 69.5754 27.1506L70.8032 28.7294C72.0166 27.7856 73.7169 27.26 76.0093 27.26V25.26ZM69.5893 27.14C67.856 28.4399 67.0293 30.3409 67.0293 32.68H69.0293C69.0293 30.8591 69.6426 29.6001 70.7893 28.74L69.5893 27.14ZM67.0293 32.68C67.0293 35.084 67.8458 37.0324 69.5893 38.34L70.7893 36.74C69.6528 35.8876 69.0293 34.596 69.0293 32.68H67.0293ZM69.5893 38.34C71.2546 39.589 73.4289 40.16 76.0093 40.16V38.16C73.7097 38.16 72.004 37.651 70.7893 36.74L69.5893 38.34ZM104.629 46L103.714 45.5968L103.095 47H104.629V46ZM119.989 11.14L120.904 11.5432L121.137 11.0145L120.795 10.5486L119.989 11.14ZM119.329 10.24L120.135 9.64863L119.836 9.24H119.329V10.24ZM106.009 10.24V9.24H105.009V10.24H106.009ZM106.009 17.32V18.32H107.009V17.32H106.009ZM98.0288 17.32H97.0288V18.32H98.0288V17.32ZM98.0288 2.2V1.2H97.0288V2.2H98.0288ZM131.209 2.2H132.209V1.2H131.209V2.2ZM131.209 8.44L132.128 8.8348L132.209 8.64576V8.44H131.209ZM115.069 46V47H115.728L115.988 46.3948L115.069 46ZM105.544 46.4032L120.904 11.5432L119.074 10.7368L103.714 45.5968L105.544 46.4032ZM120.795 10.5486L120.135 9.64863L118.522 10.8314L119.182 11.7314L120.795 10.5486ZM119.329 9.24H106.009V11.24H119.329V9.24ZM105.009 10.24V17.32H107.009V10.24H105.009ZM106.009 16.32H98.0288V18.32H106.009V16.32ZM99.0288 17.32V2.2H97.0288V17.32H99.0288ZM98.0288 3.2H131.209V1.2H98.0288V3.2ZM130.209 2.2V8.44H132.209V2.2H130.209ZM130.29 8.04519L114.15 45.6052L115.988 46.3948L132.128 8.8348L130.29 8.04519ZM115.069 45H104.629V47H115.069V45ZM141.074 46L140.159 45.5968L139.541 47H141.074V46ZM156.434 11.14L157.349 11.5432L157.582 11.0145L157.241 10.5486L156.434 11.14ZM155.774 10.24L156.581 9.64863L156.281 9.24H155.774V10.24ZM142.454 10.24V9.24H141.454V10.24H142.454ZM142.454 17.32V18.32H143.454V17.32H142.454ZM134.474 17.32H133.474V18.32H134.474V17.32ZM134.474 2.2V1.2H133.474V2.2H134.474ZM167.654 2.2H168.654V1.2H167.654V2.2ZM167.654 8.44L168.573 8.8348L168.654 8.64576V8.44H167.654ZM151.514 46V47H152.173L152.433 46.3948L151.514 46ZM141.989 46.4032L157.349 11.5432L155.519 10.7368L140.159 45.5968L141.989 46.4032ZM157.241 10.5486L156.581 9.64863L154.968 10.8314L155.628 11.7314L157.241 10.5486ZM155.774 9.24H142.454V11.24H155.774V9.24ZM141.454 10.24V17.32H143.454V10.24H141.454ZM142.454 16.32H134.474V18.32H142.454V16.32ZM135.474 17.32V2.2H133.474V17.32H135.474ZM134.474 3.2H167.654V1.2H134.474V3.2ZM166.654 2.2V8.44H168.654V2.2H166.654ZM166.735 8.04519L150.595 45.6052L152.433 46.3948L168.573 8.8348L166.735 8.04519ZM151.514 45H141.074V47H151.514V45ZM176.739 56.26L176.376 57.1916L177.309 57.5558L177.672 56.6219L176.739 56.26ZM169.359 53.38L168.414 53.0554L168.102 53.9628L168.996 54.3116L169.359 53.38ZM175.659 35.02L176.005 34.0814L175.045 33.7288L174.714 34.6954L175.659 35.02ZM183.819 38.02L184.752 38.3819L185.12 37.4327L184.165 37.0814L183.819 38.02ZM177.103 55.3284L169.723 52.4484L168.996 54.3116L176.376 57.1916L177.103 55.3284ZM170.305 53.7046L176.605 35.3446L174.714 34.6954L168.414 53.0554L170.305 53.7046ZM175.314 35.9586L183.474 38.9586L184.165 37.0814L176.005 34.0814L175.314 35.9586ZM182.887 37.6581L175.807 55.8981L177.672 56.6219L184.752 38.3819L182.887 37.6581ZM188.946 46H187.946V47H188.946V46ZM191.046 30.1L190.265 29.4752L190.256 29.4861L191.046 30.1ZM198.246 25.24L198.64 26.1591L198.642 26.1579L198.246 25.24ZM205.326 22.18L204.929 21.2619L204.929 21.2621L205.326 22.18ZM209.286 19.36L208.499 18.7422L209.286 19.36ZM208.926 10.78L208.206 11.4741L208.212 11.4807L208.219 11.4871L208.926 10.78ZM199.506 10.84L200.238 11.5214L199.506 10.84ZM197.886 15.52V16.52H198.886V15.52H197.886ZM188.346 15.52H187.346V16.52H188.346V15.52ZM190.146 8.08L191.024 8.55885L190.146 8.08ZM195.486 2.86L195.963 3.7391L195.974 3.73276L195.486 2.86ZM212.946 2.74L212.481 3.62524V3.62524L212.946 2.74ZM218.286 7.78L217.415 8.2726L217.421 8.28239L217.427 8.29206L218.286 7.78ZM217.386 23.8L218.153 24.4416L217.386 23.8ZM208.866 29.56L208.473 28.6403L208.466 28.6433L208.866 29.56ZM201.846 32.62L202.243 33.5376L202.245 33.5367L201.846 32.62ZM199.266 34.3L198.51 33.6451L198.506 33.6492L199.266 34.3ZM198.546 37.54H197.546V38.54H198.546V37.54ZM220.206 37.54H221.206V36.54H220.206V37.54ZM220.206 46V47H221.206V46H220.206ZM189.946 46V37H187.946V46H189.946ZM189.946 37C189.946 34.3704 190.6 32.3014 191.835 30.7139L190.256 29.4861C188.691 31.4986 187.946 34.0296 187.946 37H189.946ZM191.827 30.7247C193.121 29.1072 195.351 27.5685 198.64 26.1591L197.852 24.3209C194.42 25.7915 191.851 27.4928 190.265 29.4753L191.827 30.7247ZM198.642 26.1579L205.722 23.0979L204.929 21.2621L197.849 24.3221L198.642 26.1579ZM205.722 23.0981C207.584 22.2939 209.06 21.2663 210.072 19.9778L208.499 18.7422C207.752 19.6937 206.587 20.5461 204.929 21.2619L205.722 23.0981ZM210.072 19.9778C211.117 18.6473 211.606 16.9961 211.606 15.1H209.606C209.606 16.6439 209.214 17.8327 208.499 18.7422L210.072 19.9778ZM211.606 15.1C211.606 13.1071 210.962 11.4021 209.633 10.0729L208.219 11.4871C209.129 12.3979 209.606 13.5729 209.606 15.1H211.606ZM209.646 10.0859C208.324 8.71486 206.469 8.1 204.246 8.1V10.1C206.102 10.1 207.368 10.6051 208.206 11.4741L209.646 10.0859ZM204.246 8.1C201.979 8.1 200.097 8.73714 198.774 10.1586L200.238 11.5214C201.074 10.6229 202.352 10.1 204.246 10.1V8.1ZM198.774 10.1586C197.483 11.545 196.886 13.3699 196.886 15.52H198.886C198.886 13.7501 199.368 12.455 200.238 11.5214L198.774 10.1586ZM197.886 14.52H188.346V16.52H197.886V14.52ZM189.346 15.52C189.346 12.91 189.912 10.5975 191.024 8.55885L189.268 7.60115C187.98 9.96253 187.346 12.61 187.346 15.52H189.346ZM191.024 8.55885C192.125 6.54033 193.759 4.93396 195.962 3.73903L195.009 1.98097C192.492 3.34604 190.567 5.21967 189.268 7.60115L191.024 8.55885ZM195.974 3.73276C198.148 2.5168 200.889 1.88 204.246 1.88V-0.120002C200.643 -0.120002 197.544 0.563198 194.998 1.98724L195.974 3.73276ZM204.246 1.88C207.569 1.88 210.3 2.47932 212.481 3.62524L213.411 1.85476C210.872 0.520677 207.802 -0.120002 204.246 -0.120002V1.88ZM212.481 3.62524C214.687 4.78471 216.319 6.33531 217.415 8.2726L219.156 7.2874C217.853 4.98469 215.924 3.17528 213.411 1.85476L212.481 3.62524ZM217.427 8.29206C218.569 10.2082 219.146 12.3495 219.146 14.74H221.146C221.146 12.0104 220.482 9.51175 219.145 7.26793L217.427 8.29206ZM219.146 14.74V15.46H221.146V14.74H219.146ZM219.146 15.46C219.146 18.6277 218.283 21.1683 216.619 23.1584L218.153 24.4416C220.168 22.0317 221.146 19.0123 221.146 15.46H219.146ZM216.619 23.1584C214.915 25.1951 212.229 27.0361 208.473 28.6404L209.258 30.4796C213.182 28.8039 216.176 26.8049 218.153 24.4416L216.619 23.1584ZM208.466 28.6433L201.446 31.7033L202.245 33.5367L209.265 30.4767L208.466 28.6433ZM201.448 31.7024C200.189 32.2481 199.172 32.8814 198.51 33.6451L200.021 34.9549C200.4 34.5186 201.103 34.0319 202.243 33.5376L201.448 31.7024ZM198.506 33.6492C197.836 34.4319 197.546 35.4223 197.546 36.52H199.546C199.546 35.7777 199.736 35.2881 200.025 34.9508L198.506 33.6492ZM197.546 36.52V37.54H199.546V36.52H197.546ZM198.546 38.54H220.206V36.54H198.546V38.54ZM219.206 37.54V46H221.206V37.54H219.206ZM220.206 45H188.946V47H220.206V45ZM225.236 37.6H224.236V38.6H225.236V37.6ZM225.236 27.34L224.39 26.8072L224.236 27.0514V27.34H225.236ZM241.856 0.939997L242.403 0.102911L241.551 -0.453541L241.01 0.407235L241.856 0.939997ZM249.476 5.92L250.322 6.45222L250.845 5.62041L250.023 5.08291L249.476 5.92ZM235.256 28.54L234.409 28.0078L234.065 28.556L234.424 29.0947L235.256 28.54ZM236.096 29.8L235.264 30.3547L235.561 30.8H236.096V29.8ZM248.216 29.8V30.8H249.216V29.8H248.216ZM248.216 14.44V13.44H247.216V14.44H248.216ZM257.276 14.44H258.276V13.44H257.276V14.44ZM257.276 29.8H256.276V30.8H257.276V29.8ZM262.316 29.8H263.316V28.8H262.316V29.8ZM262.316 37.6V38.6H263.316V37.6H262.316ZM257.276 37.6V36.6H256.276V37.6H257.276ZM257.276 46V47H258.276V46H257.276ZM248.216 46H247.216V47H248.216V46ZM248.216 37.6H249.216V36.6H248.216V37.6ZM226.236 37.6V27.34H224.236V37.6H226.236ZM226.082 27.8728L242.702 1.47276L241.01 0.407235L224.39 26.8072L226.082 27.8728ZM241.309 1.77708L248.929 6.75708L250.023 5.08291L242.403 0.102911L241.309 1.77708ZM248.629 5.38778L234.409 28.0078L236.102 29.0722L250.322 6.45222L248.629 5.38778ZM234.424 29.0947L235.264 30.3547L236.928 29.2453L236.088 27.9853L234.424 29.0947ZM236.096 30.8H248.216V28.8H236.096V30.8ZM249.216 29.8V14.44H247.216V29.8H249.216ZM248.216 15.44H257.276V13.44H248.216V15.44ZM256.276 14.44V29.8H258.276V14.44H256.276ZM257.276 30.8H262.316V28.8H257.276V30.8ZM261.316 29.8V37.6H263.316V29.8H261.316ZM262.316 36.6H257.276V38.6H262.316V36.6ZM256.276 37.6V46H258.276V37.6H256.276ZM257.276 45H248.216V47H257.276V45ZM249.216 46V37.6H247.216V46H249.216ZM248.216 36.6H225.236V38.6H248.216V36.6Z" fill="#E94F40"/>
<defs>
<linearGradient id="paint0_linear_438_7" x1="131" y1="12.5" x2="131" y2="52.5" gradientUnits="userSpaceOnUse">
<stop stop-color="#E94F40"/>
<stop offset="1" stop-color="#E94F40" stop-opacity="0"/>
</linearGradient>
</defs>
</svg>
