<svg width="532" height="500" viewBox="0 0 532 500" fill="none" xmlns="http://www.w3.org/2000/svg">
<path d="M292.168 67.2698L259.023 100.415L292.168 133.56L325.313 100.415L292.168 67.2698Z" fill="white"/>
<path d="M225 67.2365L291.903 0L359 67.0622L325.249 101L291.981 67.6627L258.693 101L225 67.2365Z" fill="#E94F40"/>
<path d="M121.33 278.14C108.08 296.97 90.65 305.33 64.62 305.33C25.34 305.33 0 276.51 0 240.25C0 206.55 24.41 175.4 64.15 175.4C103.2 175.4 129.7 203.29 129.7 242.34C129.7 245.13 129.47 246.52 129.47 249.31H29.99C33.01 267.67 46.96 277.9 64.62 277.9C77.87 277.9 86.7 274.18 95.3 265.81L121.33 278.14ZM98.55 224.91C94.37 210.5 81.12 201.67 64.62 201.67C49.28 201.67 37.43 209.34 31.38 224.91H98.55Z" fill="#E94F40"/>
<path d="M262.17 279.53C248.92 296.73 230.33 305.33 206.15 305.33C164.08 305.33 136.89 276.74 136.89 240.71C136.89 203.75 165.71 175.4 206.62 175.4C230.79 175.4 251.25 185.39 263.57 203.52L237.77 217.7C228.94 208.4 220.34 203.75 206.86 203.75C183.15 203.75 168.04 219.79 168.04 241.17C168.04 262.09 182.68 276.97 205.46 276.97C219.18 276.97 230.1 272.32 237.77 262.79L262.17 279.53Z" fill="white"/>
<path d="M371.17 289.06C360.25 299.75 348.62 305.33 333.05 305.33C301.67 305.33 274.24 278.37 274.24 240.48C274.24 201.9 300.27 175.4 332.35 175.4C347.23 175.4 360.01 180.98 371.17 192.13V178.65H402.08V302.07H371.17V289.06V289.06ZM305.4 240.25C305.4 261.4 319.35 276.98 338.64 276.98C357.7 276.98 372.57 262.57 372.57 240.02C372.57 218.41 358.16 203.76 338.64 203.76C318.18 203.76 305.4 220.03 305.4 240.25Z" fill="white"/>
<path d="M452.51 191.21C464.37 181.22 475.29 175.4 489 175.4C512.01 175.4 531.3 191.21 531.3 217.7V302.07H500.39V243.74C500.39 219.33 498.3 203.76 479.47 203.76C470.87 203.76 463.43 207.94 458.55 215.61C452.27 225.6 452.51 236.76 452.51 249.54V302.07H421.6V178.65H452.51V191.21Z" fill="white"/>
<path d="M311.93 483.06C301.01 493.75 289.39 499.33 273.81 499.33C242.43 499.33 215 472.37 215 434.48C215 395.9 241.03 369.4 273.11 369.4C287.99 369.4 300.77 374.98 311.93 386.13V325H342.84V496.07H311.93V483.06ZM246.15 434.25C246.15 455.4 260.1 470.98 279.39 470.98C298.45 470.98 313.32 456.57 313.32 434.02C313.32 412.41 298.91 397.76 279.39 397.76C258.94 397.76 246.15 414.03 246.15 434.25Z" fill="white"/>
<path d="M359.34 325.01H390.25V496.08H359.34V325.01Z" fill="white"/>
<path d="M522.27 472.14C509.02 490.97 491.59 499.33 465.56 499.33C426.28 499.33 400.94 470.51 400.94 434.25C400.94 400.55 425.35 369.4 465.09 369.4C504.14 369.4 530.64 397.29 530.64 436.34C530.64 439.13 530.41 440.52 530.41 443.31H430.93C433.95 461.67 447.9 471.9 465.56 471.9C478.81 471.9 487.64 468.18 496.24 459.81L522.27 472.14ZM499.49 418.91C495.31 404.5 482.06 395.67 465.56 395.67C450.22 395.67 438.37 403.34 432.32 418.91H499.49Z" fill="white"/>
</svg>
