<svg width="180" height="179" viewBox="0 0 180 179" fill="none" xmlns="http://www.w3.org/2000/svg">
<g filter="url(#filter0_b_857_335)">
<circle cx="89.5" cy="89.5" r="89.5" fill="url(#paint0_linear_857_335)"/>
</g>
<g filter="url(#filter1_d_857_335)">
<circle cx="89.5" cy="89.5" r="51.5" fill="#EAEAEA" fill-opacity="0.3" shape-rendering="crispEdges"/>
<circle cx="89.5" cy="89.5" r="51" stroke="url(#paint1_linear_857_335)" stroke-opacity="0.1" shape-rendering="crispEdges"/>
</g>
<path d="M49.6737 89.3864L63.2829 89.3312L89.3387 115.411L89.373 129L73.9435 113.701V104.755H64.972L49.6737 89.3864Z" fill="#171B26"/>
<path d="M49.6737 89.3865L64.9721 73.9561H73.9308V64.9719L89.3007 49.6736L104.73 64.9719V73.9181H113.702L129 89.287L113.702 104.717H104.743V113.702L89.373 129L89.3387 115.411L115.44 89.2933L89.3007 63.2402L63.2829 89.3313L49.6737 89.3865Z" fill="#E94F40"/>
<path d="M76.3719 83.8477L79.9185 87.3952L77.9796 89.3512L82.3604 93.7519H84.9289V96.3132L89.3477 100.694L93.7484 96.3132V93.741H96.3134L100.694 89.3223L98.7942 87.3535L102.3 83.8477L107.82 89.3367L89.3369 107.82L70.8538 89.3367L76.3719 83.8477Z" fill="#171B26"/>
<path d="M76.3719 83.8476L89.336 70.8844L102.3 83.8476L98.7942 87.3535L96.3133 84.9215H93.7448V82.3602L89.3269 77.9794L84.9253 82.3602V84.9324H82.3604L79.9185 87.3951L76.3719 83.8476Z" fill="#E94F40"/>
<path d="M81.8682 89.344L89.3278 81.8627L96.8109 89.3241L93.0463 93.1014L89.3359 89.3911L85.6256 93.1014L81.8682 89.344Z" fill="#E94F40"/>
<path d="M89.3349 89.3909L85.6244 93.1014L89.3349 96.8119L93.0454 93.1014L89.3349 89.3909Z" fill="#171B26"/>
<path d="M80.2345 161.272C80.8324 161.347 81.3399 161.543 81.7569 161.859C82.1687 162.175 82.4702 162.575 82.6614 163.062C82.8526 163.548 82.9118 164.08 82.839 164.657L82.817 164.831C82.7702 165.202 82.6616 165.551 82.4912 165.879C82.3148 166.211 82.0876 166.5 81.8094 166.744C81.5253 166.993 81.196 167.175 80.8214 167.289C80.4462 167.408 80.0364 167.44 79.5919 167.383C79.1104 167.323 78.6935 167.176 78.3412 166.943C77.9882 166.716 77.7187 166.424 77.5326 166.067C77.3458 165.716 77.2609 165.323 77.278 164.89L78.0717 164.99C78.068 165.318 78.1401 165.598 78.288 165.832C78.4352 166.071 78.6318 166.26 78.8777 166.398C79.1176 166.541 79.3858 166.632 79.6821 166.669C80.0842 166.72 80.4534 166.67 80.7897 166.519C81.1259 166.368 81.403 166.131 81.6211 165.809C81.8384 165.493 81.9765 165.101 82.0353 164.636C82.1021 164.107 82.0653 163.653 81.9249 163.275C81.7791 162.897 81.5536 162.597 81.2483 162.375C80.9369 162.159 80.5696 162.024 80.1463 161.97C79.7971 161.926 79.4726 161.942 79.1729 162.017C78.8731 162.092 78.6133 162.212 78.3935 162.378L78.2692 163.362L80.1503 163.6L80.0681 164.25L76.9647 163.859L77.0469 163.208L77.539 163.27L77.6933 162.048C77.9954 161.742 78.3621 161.519 78.7936 161.38C79.2251 161.241 79.7054 161.205 80.2345 161.272Z" fill="black"/>
<path d="M68.3107 158.765C68.8152 158.921 69.2108 159.149 69.4975 159.45C69.7775 159.754 69.9524 160.109 70.0221 160.516C70.0852 160.926 70.0443 161.366 69.8995 161.835L68.8607 165.198L68.1116 164.966L69.1788 161.511C69.3236 161.043 69.3058 160.621 69.1255 160.247C68.9451 159.874 68.6027 159.609 68.0982 159.453C67.5988 159.299 67.17 159.322 66.8118 159.524C66.452 159.731 66.1989 160.072 66.0525 160.546L64.9853 164.001L64.2362 163.769L65.2751 160.406C65.4199 159.937 65.634 159.551 65.9175 159.248C66.1993 158.95 66.5417 158.754 66.9445 158.661C67.3457 158.573 67.8011 158.608 68.3107 158.765Z" fill="black"/>
<path d="M57.0855 154.327C57.519 154.545 57.8523 154.802 58.0852 155.099C58.3181 155.395 58.4521 155.71 58.4869 156.044C58.5218 156.378 58.4589 156.705 58.2983 157.024L57.598 156.672C57.6771 156.514 57.7157 156.337 57.7139 156.139C57.7073 155.938 57.6327 155.737 57.4901 155.534C57.3428 155.328 57.1 155.14 56.7618 154.97C56.4474 154.812 56.1674 154.727 55.9217 154.717C55.6737 154.712 55.4648 154.759 55.2952 154.859C55.1232 154.963 54.9928 155.104 54.9041 155.28C54.7962 155.494 54.8004 155.717 54.9166 155.949C55.0305 156.185 55.2577 156.41 55.5982 156.623L56.1518 156.965C56.5947 157.235 56.8919 157.564 57.0436 157.951C57.1952 158.338 57.169 158.734 56.9652 159.139C56.8046 159.458 56.5881 159.698 56.3157 159.859C56.0386 160.019 55.7283 160.095 55.3849 160.09C55.039 160.089 54.6827 159.996 54.3159 159.811C53.9538 159.629 53.6682 159.402 53.4591 159.129C53.2499 158.857 53.1303 158.561 53.1001 158.241C53.0628 157.924 53.1281 157.598 53.296 157.265L53.9962 157.617C53.9123 157.784 53.8737 157.961 53.8803 158.15C53.8822 158.336 53.9425 158.519 54.0613 158.698C54.1801 158.877 54.3728 159.034 54.6396 159.168C54.8969 159.298 55.134 159.36 55.3511 159.356C55.5634 159.349 55.7496 159.294 55.9097 159.189C56.0626 159.087 56.181 158.953 56.2649 158.786C56.3609 158.595 56.3721 158.389 56.2988 158.167C56.2255 157.945 56.0495 157.749 55.7709 157.579L55.2173 157.238C54.7077 156.921 54.3604 156.562 54.1755 156.158C53.9834 155.757 53.9928 155.346 54.2038 154.927C54.3645 154.608 54.5929 154.368 54.8891 154.206C55.1853 154.045 55.523 153.973 55.9022 153.991C56.2814 154.009 56.6758 154.121 57.0855 154.327Z" fill="black"/>
<path d="M47.8055 148.995L44.8272 153.179L46.2741 154.209L45.8658 154.783L42.3333 152.268L42.7416 151.695L44.1885 152.724L47.1668 148.54L47.8055 148.995Z" fill="black"/>
<path d="M40.9616 143.677L35.3638 146.36L34.4179 145.427L36.973 139.746L37.5485 140.313L36.7802 142.005L38.7346 143.931L40.4032 143.127L40.9616 143.677ZM38.0638 144.258L36.4741 142.691L35.2881 145.297L35.499 145.504L38.0638 144.258Z" fill="black"/>
<path d="M31.2526 132.931L27.7056 137.992L27.2322 137.337L30.368 132.909L30.1946 132.669L25.0903 134.375L24.631 133.739L30.4652 131.841L31.2526 132.931Z" fill="black"/>
<path d="M24.7299 122.025C24.9616 122.493 25.0777 122.938 25.0782 123.361C25.0787 123.783 24.9971 124.171 24.8333 124.526C24.6695 124.88 24.4595 125.19 24.2031 125.453C23.9443 125.712 23.6715 125.912 23.3847 126.054L23.2269 126.132C22.9162 126.286 22.5758 126.386 22.2059 126.432C21.836 126.478 21.4664 126.452 21.0972 126.355C20.7231 126.261 20.3745 126.085 20.0512 125.828C19.7256 125.567 19.4493 125.207 19.2224 124.748C18.9955 124.289 18.8782 123.853 18.8704 123.44C18.8604 123.023 18.9313 122.637 19.0831 122.282C19.2302 121.93 19.4343 121.621 19.6954 121.355C19.9566 121.089 20.2426 120.879 20.5533 120.725L20.7111 120.647C20.9979 120.505 21.3239 120.413 21.689 120.369C22.0518 120.32 22.4238 120.339 22.8051 120.424C23.1863 120.509 23.5445 120.68 23.8797 120.937C24.2149 121.193 24.4983 121.556 24.7299 122.025ZM24.0845 122.344C23.9332 122.038 23.7399 121.791 23.5046 121.604C23.267 121.412 23.0076 121.279 22.7265 121.203C22.4406 121.131 22.1509 121.11 21.8573 121.142C21.559 121.177 21.2713 121.263 20.994 121.4C20.6067 121.591 20.2955 121.846 20.0604 122.165C19.818 122.481 19.6746 122.834 19.6299 123.225C19.5852 123.616 19.6645 124.017 19.8678 124.429C20.0688 124.835 20.3393 125.142 20.6795 125.348C21.0173 125.55 21.3865 125.653 21.7872 125.657C22.1807 125.659 22.5711 125.564 22.9584 125.373C23.2357 125.235 23.4785 125.059 23.687 124.843C23.8907 124.629 24.0504 124.386 24.1661 124.115C24.277 123.846 24.3295 123.561 24.3237 123.261C24.3155 122.955 24.2358 122.65 24.0845 122.344Z" fill="black"/>
<path d="M18.7781 105.931L13.0364 106.998L12.8932 106.227L15.4337 105.755L14.855 102.64L12.3145 103.112L12.1712 102.341L17.913 101.274L18.0562 102.045L15.5471 102.511L16.1258 105.626L18.6349 105.16L18.7781 105.931Z" fill="black"/>
<path d="M17.1136 93.5228L11.2753 93.6642L11.1936 90.2892L11.8974 90.2721L11.9602 92.8634L13.7756 92.8194L13.717 90.3961L14.4208 90.3791L14.4794 92.8024L16.3909 92.7561L16.3262 90.0849L17.03 90.0679L17.1136 93.5228Z" fill="black"/>
<path d="M17.3245 83.103L11.5378 82.3153L11.7105 81.047L17.1999 78.7989L17.2128 78.7038L12.1238 78.011L12.2252 77.2659L18.0118 78.0536L17.837 79.3377L12.3476 81.5859L12.3347 81.681L17.4238 82.3737L17.3245 83.103Z" fill="black"/>
<path d="M19.6197 70.7991L14.0136 69.0523L14.5823 67.2269C14.7093 66.8195 14.8814 66.4821 15.0988 66.2147C15.3162 65.9472 15.5784 65.7692 15.8853 65.6805C16.1923 65.5918 16.5469 65.6101 16.9492 65.7354L17.0714 65.7735C17.5093 65.9099 17.8289 66.1212 18.0302 66.4074C18.228 66.6869 18.329 67.0172 18.3331 67.3984L20.9762 66.4455L20.693 67.3544L18.2078 68.2308C18.1967 68.2664 18.1848 68.3046 18.1721 68.3454L17.8366 69.4223L19.853 70.0506L19.6197 70.7991ZM15.282 67.294L14.9036 68.5085L17.1721 69.2153L17.5505 68.0008C17.6584 67.6546 17.6371 67.3463 17.4867 67.076C17.3363 66.8057 17.0982 66.6198 16.7723 66.5182C16.4413 66.4151 16.1372 66.4321 15.8598 66.5691C15.5825 66.7061 15.3899 66.9478 15.282 67.294Z" fill="black"/>
<path d="M23.5924 60.0105L18.3081 57.5241L18.6419 56.8147L23.9262 59.3011L23.5924 60.0105Z" fill="black"/>
<path d="M30.8888 50.4923C30.7298 50.7325 30.5559 50.9179 30.3669 51.0487C30.1825 51.1824 29.9733 51.2423 29.7396 51.2282C29.5058 51.2142 29.2422 51.11 28.9487 50.9157L28.8019 50.8185C28.5102 51.1819 28.1893 51.4492 27.8393 51.6204C27.4849 51.7887 27.1272 51.8845 26.7663 51.9078C26.404 51.9238 26.0577 51.8864 25.7276 51.7958C25.393 51.7022 25.0989 51.5715 24.8455 51.4037L24.6987 51.3065C24.4096 51.1151 24.1522 50.8712 23.9264 50.5746C23.7006 50.278 23.5369 49.9457 23.4351 49.5777C23.3289 49.2067 23.3054 48.817 23.3648 48.4086C23.4271 47.9957 23.5995 47.5758 23.8822 47.1489C24.1648 46.7219 24.4825 46.4014 24.8354 46.1873C25.1912 45.9687 25.5605 45.8359 25.9435 45.7888C26.322 45.7387 26.6919 45.7597 27.0531 45.8518C27.4143 45.9438 27.7395 46.0855 28.0285 46.2769L28.1753 46.374C28.4243 46.5389 28.6573 46.7571 28.8741 47.0286C29.0894 47.2927 29.259 47.5968 29.3829 47.9411C29.5053 48.278 29.5582 48.6424 29.5417 49.0345C29.5237 49.4191 29.4096 49.8137 29.1994 50.2182L29.4462 50.3816C29.593 50.4787 29.7366 50.513 29.877 50.4845C30.0204 50.4515 30.1392 50.3638 30.2334 50.2215L30.781 49.3944L31.3613 49.7786L30.8888 50.4923ZM28.4048 50.1431C28.5932 49.8585 28.7092 49.5674 28.7526 49.27C28.799 48.9681 28.784 48.6767 28.7076 48.3959C28.6268 48.1121 28.4988 47.8515 28.3235 47.6139C28.1437 47.3733 27.9249 47.1677 27.667 46.9969C27.3068 46.7585 26.9298 46.6177 26.5362 46.5746C26.1411 46.524 25.7634 46.5778 25.4029 46.7357C25.0425 46.8937 24.7357 47.1639 24.4825 47.5463C24.2323 47.9243 24.1033 48.3123 24.0957 48.7102C24.0911 49.1037 24.1877 49.4747 24.3855 49.8231C24.5819 50.1642 24.8602 50.454 25.2204 50.6924C25.4783 50.8632 25.7531 50.9844 26.0447 51.0559C26.3319 51.1245 26.6219 51.1406 26.9146 51.1042C27.203 51.0648 27.4756 50.967 27.7324 50.8109C27.9923 50.6503 28.2164 50.4277 28.4048 50.1431Z" fill="black"/>
<path d="M36.5331 40.9698C36.1698 41.3529 35.7899 41.6064 35.3933 41.7301C34.9965 41.8463 34.6003 41.8455 34.2049 41.7278C33.8092 41.6025 33.4333 41.3711 33.0772 41.0334L30.5229 38.6115L31.0623 38.0426L33.6863 40.5306C34.0424 40.8682 34.428 41.039 34.8431 41.0431C35.2582 41.0471 35.6473 40.8575 36.0106 40.4744C36.3703 40.0951 36.5389 39.7002 36.5167 39.2895C36.4906 38.8753 36.2976 38.4975 35.9376 38.1562L33.3136 35.6682L33.8531 35.0993L36.4074 37.5212C36.7635 37.8588 37.0146 38.2219 37.1607 38.6103C37.303 38.9951 37.3267 39.3887 37.2317 39.7911C37.1329 40.1899 36.9001 40.5828 36.5331 40.9698Z" fill="black"/>
<path d="M43.898 33.9087L40.3521 29.2685L43.0345 27.2186L43.462 27.778L41.4024 29.3518L42.5051 30.7947L44.4311 29.323L44.8586 29.8823L42.9325 31.3541L44.0934 32.8733L46.2165 31.251L46.644 31.8103L43.898 33.9087Z" fill="black"/>
<path d="M57.9051 22.9825L57.6461 22.3798L60.3801 21.2045L60.6392 21.8072L57.9051 22.9825Z" fill="black"/>
<path d="M75.8055 19.2409L74.9524 13.3988L76.9314 13.1099C77.4538 13.0336 77.9196 13.0491 78.3288 13.1564C78.7371 13.2585 79.088 13.4283 79.3814 13.6657C79.6793 13.8971 79.9162 14.1724 80.0922 14.4916C80.2674 14.8056 80.3804 15.1368 80.4313 15.4851L80.4567 15.6592C80.5061 15.997 80.4921 16.344 80.4147 16.7002C80.3374 17.0565 80.1894 17.3907 79.9709 17.7029C79.7577 18.0143 79.4708 18.2826 79.1102 18.5077C78.7488 18.7275 78.3069 18.8756 77.7845 18.9519L75.8055 19.2409ZM77.1146 13.8107L75.8322 13.998L76.4772 18.4152L77.7596 18.2279C78.224 18.1601 78.6055 18.0047 78.9042 17.7616C79.2082 17.5178 79.423 17.2169 79.5486 16.859C79.6787 16.4951 79.7133 16.1047 79.6524 15.6877C79.5892 15.255 79.444 14.8881 79.2168 14.5871C78.9941 14.2801 78.703 14.0585 78.3436 13.9223C77.9887 13.7801 77.579 13.7429 77.1146 13.8107Z" fill="black"/>
<path d="M88.2639 18.0261L88.3486 12.1867L91.7242 12.2357L91.714 12.9396L89.1223 12.902L89.096 14.7178L91.5197 14.753L91.5095 15.4569L89.0857 15.4217L89.058 17.3335L91.7297 17.3723L91.7195 18.0762L88.2639 18.0261Z" fill="black"/>
<path d="M100.515 19.1158C100.036 19.0352 99.6419 18.8877 99.3319 18.6733C99.0218 18.4588 98.8009 18.1972 98.669 17.8884C98.5371 17.5795 98.5008 17.2489 98.5601 16.8965L99.3332 17.0267C99.304 17.2002 99.3195 17.3813 99.3797 17.5699C99.4451 17.7594 99.576 17.9301 99.7721 18.0821C99.9735 18.235 100.261 18.3429 100.634 18.4057C100.981 18.4642 101.274 18.462 101.512 18.3993C101.75 18.3312 101.936 18.2246 102.068 18.0792C102.202 17.9286 102.285 17.756 102.318 17.5615C102.358 17.3248 102.288 17.1129 102.108 16.9259C101.93 16.7336 101.646 16.5858 101.258 16.4826L100.628 16.3198C100.125 16.1919 99.7444 15.9655 99.4854 15.6407C99.2264 15.3159 99.1345 14.9299 99.2097 14.4829C99.269 14.1305 99.405 13.837 99.6175 13.6023C99.8353 13.3686 100.109 13.2037 100.439 13.1078C100.77 13.0066 101.138 12.9901 101.543 13.0583C101.942 13.1256 102.282 13.2585 102.562 13.4571C102.843 13.6557 103.044 13.9033 103.168 14.1999C103.297 14.492 103.331 14.8222 103.269 15.1904L102.495 15.0602C102.526 14.8762 102.511 14.6951 102.449 14.517C102.392 14.3398 102.281 14.1831 102.114 14.0469C101.948 13.9108 101.718 13.8179 101.423 13.7683C101.139 13.7205 100.894 13.7306 100.688 13.7987C100.487 13.8676 100.325 13.9757 100.203 14.1228C100.087 14.2655 100.014 14.4289 99.9828 14.613C99.9474 14.8234 99.9975 15.0238 100.133 15.2143C100.269 15.4048 100.495 15.5401 100.811 15.6204L101.441 15.7832C102.021 15.935 102.459 16.1763 102.755 16.5074C103.057 16.834 103.169 17.2288 103.091 17.6916C103.032 18.044 102.884 18.341 102.649 18.5826C102.414 18.8242 102.112 18.9925 101.745 19.0875C101.377 19.1825 100.967 19.1919 100.515 19.1158Z" fill="black"/>
<path d="M109.895 21.1402L111.646 15.5688L112.394 15.8039L110.643 21.3752L109.895 21.1402Z" fill="black"/>
<path d="M120.001 25.2228C119.458 24.9609 119.04 24.6138 118.745 24.1815C118.455 23.7514 118.297 23.2754 118.27 22.7534C118.244 22.2314 118.357 21.7086 118.609 21.185L118.686 21.0265C118.848 20.6902 119.062 20.3938 119.328 20.1372C119.601 19.8781 119.908 19.6769 120.25 19.5337C120.598 19.3881 120.968 19.3208 121.36 19.332C121.753 19.3383 122.152 19.4388 122.556 19.6335C122.993 19.8444 123.341 20.1162 123.601 20.4488C123.863 20.7767 124.026 21.1393 124.089 21.5368C124.154 21.9295 124.11 22.3285 123.956 22.7338L123.235 22.3862C123.343 22.0769 123.364 21.788 123.298 21.5194C123.234 21.246 123.108 21.0044 122.919 20.7948C122.737 20.5827 122.512 20.4118 122.243 20.282C121.878 20.1059 121.512 20.0359 121.145 20.0721C120.778 20.1083 120.44 20.2443 120.131 20.48C119.824 20.711 119.569 21.0378 119.365 21.4605C119.133 21.9409 119.024 22.3825 119.036 22.7855C119.054 23.1907 119.172 23.5469 119.391 23.8539C119.618 24.1584 119.923 24.4033 120.307 24.5887C120.624 24.7417 120.937 24.8303 121.245 24.8546C121.553 24.8788 121.837 24.8474 122.099 24.7602L122.53 23.8667L120.822 23.0429L121.107 22.452L123.924 23.8112L123.639 24.402L123.192 24.1865L122.657 25.2961C122.273 25.49 121.855 25.5842 121.402 25.5787C120.948 25.5732 120.482 25.4545 120.001 25.2228Z" fill="black"/>
<path d="M128.714 29.9275L132.124 25.1864L133.163 25.9338L132.574 31.8363L132.652 31.8924L135.651 27.7228L136.261 28.1618L132.851 32.903L131.799 32.1463L132.388 26.2437L132.31 26.1877L129.312 30.3573L128.714 29.9275Z" fill="black"/>
<path d="M138.497 37.7395L142.617 33.6001L145.009 35.9816L144.513 36.4806L142.676 34.6522L141.395 35.9394L143.113 37.6493L142.616 38.1483L140.898 36.4384L139.549 37.7936L141.443 39.6784L140.947 40.1774L138.497 37.7395Z" fill="black"/>
<path d="M145.538 45.4268L150.263 41.9411L151.398 43.4797C151.652 43.8231 151.822 44.1615 151.909 44.495C151.996 44.8285 151.984 45.1453 151.874 45.4452C151.764 45.7451 151.539 46.0201 151.2 46.2703L151.097 46.3462C150.728 46.6185 150.368 46.7511 150.019 46.7441C149.676 46.7381 149.35 46.6241 149.041 46.4019L148.245 49.0964L147.68 48.3303L148.444 45.8083C148.421 45.7783 148.398 45.7461 148.372 45.7117L147.703 44.804L146.003 46.0577L145.538 45.4268ZM150.93 44.004L150.175 42.9804L148.263 44.3908L149.018 45.4145C149.233 45.7063 149.494 45.8716 149.801 45.9103C150.108 45.949 150.399 45.8671 150.674 45.6644C150.953 45.4587 151.119 45.2034 151.173 44.8988C151.226 44.5941 151.145 44.2959 150.93 44.004Z" fill="black"/>
<path d="M156.753 60.5312L157.362 60.2867L158.47 63.0485L157.862 63.2929L156.753 60.5312Z" fill="black"/>
<path d="M160.06 78.5263L165.846 77.7385L166.287 80.9727L165.589 81.0677L165.255 78.6103L163.439 78.8574L163.764 81.1789L163.066 81.2739L162.742 78.9524L160.166 79.3031L160.06 78.5263Z" fill="black"/>
<path d="M160.987 88.9093L166.858 89.0088L166.825 90.9205C166.818 91.3472 166.748 91.7193 166.615 92.0371C166.481 92.3549 166.28 92.5995 166.01 92.771C165.74 92.9424 165.395 93.0246 164.974 93.0175L164.846 93.0153C164.387 93.0075 164.021 92.8946 163.747 92.6766C163.479 92.464 163.289 92.1754 163.178 91.8108L160.909 93.4686L160.926 92.5168L163.064 90.9768C163.065 90.9395 163.065 90.8995 163.066 90.8568L163.085 89.729L160.973 89.6932L160.987 88.9093ZM166.135 91.0529L166.157 89.781L163.781 89.7408L163.759 91.0126C163.753 91.3752 163.86 91.6651 164.081 91.8822C164.301 92.0993 164.582 92.2107 164.923 92.2165C165.27 92.2224 165.557 92.1206 165.785 91.911C166.012 91.7015 166.129 91.4155 166.135 91.0529Z" fill="black"/>
<path d="M159.646 102.9C159.741 102.386 159.915 101.96 160.168 101.622C160.421 101.284 160.719 101.022 161.063 100.836C161.406 100.651 161.76 100.529 162.123 100.472C162.485 100.42 162.824 100.423 163.138 100.482L163.311 100.514C163.652 100.577 163.985 100.701 164.308 100.886C164.632 101.071 164.912 101.313 165.15 101.612C165.392 101.912 165.566 102.262 165.671 102.661C165.775 103.065 165.78 103.519 165.686 104.023C165.593 104.526 165.426 104.945 165.184 105.28C164.942 105.62 164.654 105.887 164.32 106.08C163.991 106.273 163.642 106.399 163.274 106.455C162.905 106.511 162.55 106.508 162.21 106.444L162.037 106.412C161.722 106.354 161.405 106.232 161.087 106.049C160.768 105.87 160.481 105.632 160.227 105.335C159.973 105.039 159.788 104.687 159.674 104.281C159.56 103.874 159.55 103.414 159.646 102.9ZM160.354 103.032C160.291 103.367 160.298 103.681 160.374 103.971C160.45 104.267 160.577 104.53 160.757 104.759C160.942 104.988 161.162 105.178 161.416 105.329C161.675 105.48 161.957 105.584 162.261 105.64C162.686 105.719 163.088 105.702 163.467 105.588C163.851 105.48 164.177 105.283 164.448 104.997C164.718 104.711 164.895 104.342 164.979 103.891C165.061 103.445 165.029 103.038 164.88 102.669C164.731 102.305 164.497 102.001 164.179 101.757C163.865 101.52 163.496 101.362 163.071 101.283C162.767 101.226 162.467 101.222 162.17 101.27C161.879 101.319 161.606 101.417 161.35 101.565C161.1 101.714 160.888 101.911 160.712 102.155C160.535 102.404 160.416 102.696 160.354 103.032Z" fill="black"/>
<path d="M157.396 112.535L162.867 114.58L162.419 115.779L156.568 116.761L156.535 116.851L161.346 118.649L161.082 119.353L155.612 117.309L156.066 116.095L161.916 115.113L161.95 115.023L157.139 113.225L157.396 112.535Z" fill="black"/>
<path d="M151.867 125.014L156.331 127.554L157.209 126.01L157.821 126.358L155.677 130.127L155.065 129.779L155.943 128.235L151.479 125.695L151.867 125.014Z" fill="black"/>
<path d="M142.208 138.474L146.426 142.513L144.091 144.952L143.583 144.465L145.376 142.593L144.064 141.337L142.387 143.088L141.879 142.601L143.555 140.85L142.174 139.527L140.326 141.457L139.818 140.971L142.208 138.474Z" fill="black"/>
<path d="M134.673 145.674L138.196 150.332L137.175 151.104L131.71 148.798L131.633 148.856L134.732 152.952L134.132 153.406L130.609 148.748L131.642 147.967L137.108 150.272L137.184 150.214L134.086 146.118L134.673 145.674Z" fill="black"/>
<path d="M124.33 152.711L127.023 157.966L125.243 158.878C124.773 159.119 124.327 159.254 123.905 159.285C123.486 159.32 123.099 159.272 122.745 159.142C122.388 159.02 122.075 158.835 121.805 158.59C121.538 158.349 121.324 158.072 121.164 157.759L121.084 157.603C120.928 157.299 120.829 156.966 120.787 156.604C120.746 156.242 120.778 155.877 120.884 155.511C120.985 155.148 121.17 154.801 121.439 154.472C121.71 154.147 122.08 153.864 122.55 153.624L124.33 152.711ZM124.843 158.274L125.997 157.682L123.961 153.71L122.807 154.301C122.39 154.515 122.079 154.785 121.874 155.112C121.665 155.44 121.559 155.795 121.556 156.174C121.55 156.56 121.643 156.941 121.836 157.316C122.035 157.705 122.291 158.006 122.603 158.217C122.913 158.436 123.26 158.552 123.644 158.565C124.026 158.585 124.426 158.488 124.843 158.274Z" fill="black"/>
<path d="M106.642 161.743L106.78 162.384L103.871 163.012L103.733 162.37L106.642 161.743Z" fill="black"/>
<defs>
<filter id="filter0_b_857_335" x="-50" y="-50" width="279" height="279" filterUnits="userSpaceOnUse" color-interpolation-filters="sRGB">
<feFlood flood-opacity="0" result="BackgroundImageFix"/>
<feGaussianBlur in="BackgroundImage" stdDeviation="25"/>
<feComposite in2="SourceAlpha" operator="in" result="effect1_backgroundBlur_857_335"/>
<feBlend mode="normal" in="SourceGraphic" in2="effect1_backgroundBlur_857_335" result="shape"/>
</filter>
<filter id="filter1_d_857_335" x="17" y="16" width="163" height="163" filterUnits="userSpaceOnUse" color-interpolation-filters="sRGB">
<feFlood flood-opacity="0" result="BackgroundImageFix"/>
<feColorMatrix in="SourceAlpha" type="matrix" values="0 0 0 0 0 0 0 0 0 0 0 0 0 0 0 0 0 0 127 0" result="hardAlpha"/>
<feOffset dx="9" dy="8"/>
<feGaussianBlur stdDeviation="15"/>
<feComposite in2="hardAlpha" operator="out"/>
<feColorMatrix type="matrix" values="0 0 0 0 0 0 0 0 0 0 0 0 0 0 0 0 0 0 0.05 0"/>
<feBlend mode="normal" in2="BackgroundImageFix" result="effect1_dropShadow_857_335"/>
<feBlend mode="normal" in="SourceGraphic" in2="effect1_dropShadow_857_335" result="shape"/>
</filter>
<linearGradient id="paint0_linear_857_335" x1="89.5" y1="0" x2="89.5" y2="179" gradientUnits="userSpaceOnUse">
<stop stop-color="white"/>
<stop offset="1" stop-color="#D0D0D0"/>
</linearGradient>
<linearGradient id="paint1_linear_857_335" x1="89.5" y1="38" x2="89.5" y2="141" gradientUnits="userSpaceOnUse">
<stop stop-opacity="0"/>
<stop offset="1"/>
</linearGradient>
</defs>
</svg>
