<svg width="14" height="14" viewBox="0 0 14 14" fill="none" xmlns="http://www.w3.org/2000/svg">
<path d="M11.9547 2.03529C11.3099 1.38751 10.5421 0.873942 9.69602 0.524521C8.8499 0.1751 7.94239 -0.00318873 7.02637 4.31641e-05C3.18797 4.31641e-05 0.0597689 3.11328 0.0562531 6.93527C0.0562531 8.15939 0.377951 9.35026 0.985309 10.4046L0 14L3.69513 13.0358C4.71736 13.5896 5.86257 13.8798 7.02637 13.8801H7.02988C10.8692 13.8801 13.9965 10.7669 14 6.9414C14.0009 6.02969 13.8205 5.12682 13.4693 4.2848C13.1182 3.44278 12.6031 2.67826 11.9538 2.03529H11.9547ZM7.02637 12.7059C5.98832 12.7062 4.96935 12.4281 4.07659 11.9009L3.86564 11.7749L1.67353 12.3471L2.25891 10.2183L2.1218 9.99864C1.54152 9.08018 1.23462 8.01679 1.23669 6.93177C1.23669 3.75903 3.83576 1.17079 7.02988 1.17079C7.79083 1.16943 8.54452 1.31803 9.2475 1.60802C9.95049 1.89801 10.5889 2.32365 11.1258 2.86041C11.6646 3.39508 12.0918 4.03065 12.3827 4.73048C12.6735 5.43031 12.8223 6.18054 12.8204 6.9379C12.8169 10.122 10.2179 12.7059 7.02637 12.7059V12.7059ZM10.2038 8.38864C10.0306 8.30202 9.17541 7.88289 9.01456 7.82339C8.85459 7.76652 8.73769 7.73677 8.62343 7.91002C8.50653 8.08239 8.17252 8.47527 8.07232 8.58814C7.97212 8.70452 7.86841 8.71764 7.69437 8.63189C7.52122 8.54439 6.95957 8.36239 6.29508 7.77002C5.77649 7.31065 5.42931 6.7419 5.32559 6.56952C5.22539 6.39627 5.31592 6.30352 5.40294 6.2169C5.47941 6.1399 5.57609 6.0139 5.66311 5.91415C5.751 5.8144 5.78001 5.7409 5.83714 5.6254C5.89427 5.50815 5.86703 5.4084 5.82396 5.32178C5.78001 5.23515 5.43282 4.38028 5.28604 4.03553C5.1454 3.69516 5.00213 3.74241 4.8949 3.73803C4.7947 3.73191 4.6778 3.73191 4.5609 3.73191C4.47262 3.73409 4.38575 3.75442 4.30573 3.79161C4.22572 3.8288 4.15429 3.88206 4.09593 3.94803C3.93596 4.12128 3.48857 4.5404 3.48857 5.39528C3.48857 6.25015 4.11263 7.07177 4.20053 7.18815C4.28666 7.30452 5.42579 9.05364 7.17403 9.80614C7.58714 9.98551 7.91235 10.0914 8.16637 10.1719C8.58388 10.3049 8.96095 10.2848 9.26155 10.2419C9.59555 10.1911 10.2908 9.82189 10.4376 9.41676C10.5817 9.01077 10.5817 8.66427 10.5378 8.59164C10.4947 8.51814 10.3778 8.47527 10.2038 8.38864V8.38864Z" fill="white"/>
</svg>
